<?xml version="1.0" encoding="UTF-8"?>
<!DOCTYPE svg PUBLIC "-//W3C//DTD SVG 1.1//EN" "http://www.w3.org/Graphics/SVG/1.1/DTD/svg11.dtd">
<svg xmlns="http://www.w3.org/2000/svg" version="1.1" width="1024px" height="1024px" style="shape-rendering:geometricPrecision; text-rendering:geometricPrecision; image-rendering:optimizeQuality; fill-rule:evenodd; clip-rule:evenodd" xmlns:xlink="http://www.w3.org/1999/xlink">
<g><path style="opacity:0.004" fill="#effffe" d="M 526.5,157.5 C 525.833,157.5 525.167,157.5 524.5,157.5C 522.708,156.691 520.708,156.191 518.5,156C 521.426,155.782 524.26,155.282 527,154.5C 531.512,155.658 531.345,156.658 526.5,157.5 Z"/></g>
<g><path style="opacity:0.004" fill="#fefffe" d="M 430.5,155.5 C 432.337,155.639 432.67,156.306 431.5,157.5C 430.702,157.043 430.369,156.376 430.5,155.5 Z"/></g>
<g><path style="opacity:0.004" fill="#fefffe" d="M 438.5,155.5 C 439.525,155.897 439.692,156.563 439,157.5C 438.536,156.906 438.369,156.239 438.5,155.5 Z"/></g>
<g><path style="opacity:0.004" fill="#fefffe" d="M 451.5,156.5 C 451.897,155.475 452.563,155.308 453.5,156C 452.906,156.464 452.239,156.631 451.5,156.5 Z"/></g>
<g><path style="opacity:0.004" fill="#fefffe" d="M 457.5,156.5 C 458.251,155.427 459.251,155.26 460.5,156C 459.552,156.483 458.552,156.649 457.5,156.5 Z"/></g>
<g><path style="opacity:0.004" fill="#fefffe" d="M 492.5,155.5 C 493.833,156.167 493.833,156.167 492.5,155.5 Z"/></g>
<g><path style="opacity:0.004" fill="#fefffe" d="M 498.5,155.5 C 499.833,156.167 499.833,156.167 498.5,155.5 Z"/></g>
<g><path style="opacity:0.004" fill="#fefffe" d="M 506.5,155.5 C 507.833,156.167 507.833,156.167 506.5,155.5 Z"/></g>
<g><path style="opacity:0.004" fill="#e7fffe" d="M 511.5,156.5 C 512.946,155.387 514.613,155.22 516.5,156C 514.866,156.494 513.199,156.66 511.5,156.5 Z"/></g>
<g><path style="opacity:0.004" fill="#fefffe" d="M 532.5,156.5 C 534.966,155.366 537.633,155.199 540.5,156C 537.854,156.497 535.187,156.664 532.5,156.5 Z"/></g>
<g><path style="opacity:0.004" fill="#fefffe" d="M 550.5,156.5 C 551.251,155.427 552.251,155.26 553.5,156C 552.552,156.483 551.552,156.649 550.5,156.5 Z"/></g>
<g><path style="opacity:0.004" fill="#fefffe" d="M 559.5,156.5 C 559.897,155.475 560.563,155.308 561.5,156C 560.906,156.464 560.239,156.631 559.5,156.5 Z"/></g>
<g><path style="opacity:0.004" fill="#fefffe" d="M 587.5,156.5 C 588.077,155.227 588.743,155.227 589.5,156.5C 589.03,157.463 588.363,157.463 587.5,156.5 Z"/></g>
<g><path style="opacity:0.004" fill="#fefffe" d="M 393.5,159.5 C 394.946,158.387 396.613,158.22 398.5,159C 396.866,159.494 395.199,159.66 393.5,159.5 Z"/></g>
<g><path style="opacity:0.004" fill="#fefffe" d="M 598.5,159.5 C 598.897,158.475 599.563,158.308 600.5,159C 599.906,159.464 599.239,159.631 598.5,159.5 Z"/></g>
<g><path style="opacity:0.236" fill="#5e6e84" d="M 478.5,157.5 C 479.091,158.151 479.757,158.818 480.5,159.5C 455.84,160.666 431.173,160.833 406.5,160C 407.056,159.617 407.389,159.117 407.5,158.5C 431.464,158.641 455.131,158.308 478.5,157.5 Z"/></g>
<g><path style="opacity:0.244" fill="#506172" d="M 483.5,157.5 C 496.803,157.567 510.469,157.567 524.5,157.5C 525.167,157.5 525.833,157.5 526.5,157.5C 548.275,157.452 570.275,157.786 592.5,158.5C 578.516,159.833 564.183,160.499 549.5,160.5C 535.167,160.333 520.833,160.167 506.5,160C 505.127,159.125 503.627,158.625 502,158.5C 495.5,159.735 489,159.735 482.5,158.5C 482.624,157.893 482.957,157.56 483.5,157.5 Z"/></g>
<g><path style="opacity:0.004" fill="#fefffe" d="M 623.5,162.5 C 624.776,163.386 624.776,164.386 623.5,165.5C 622.438,164.575 622.438,163.575 623.5,162.5 Z"/></g>
<g><path style="opacity:0.004" fill="#fefffe" d="M 367.5,163.5 C 368.833,164.167 368.833,164.167 367.5,163.5 Z"/></g>
<g><path style="opacity:0.004" fill="#fefffe" d="M 371.5,163.5 C 372.833,164.167 372.833,164.167 371.5,163.5 Z"/></g>
<g><path style="opacity:0.004" fill="#fefffe" d="M 619.5,163.5 C 620.833,164.167 620.833,164.167 619.5,163.5 Z"/></g>
<g><path style="opacity:0.004" fill="#fefffe" d="M 376.5,164.5 C 376.103,165.525 375.437,165.692 374.5,165C 375.094,164.536 375.761,164.369 376.5,164.5 Z"/></g>
<g><path style="opacity:0.004" fill="#fefffe" d="M 362.5,166.5 C 365.372,166.635 366.872,167.969 367,170.5C 365.141,169.421 363.641,168.088 362.5,166.5 Z"/></g>
<g><path style="opacity:0.006" fill="#f1eeff" d="M 628.5,170.5 C 628.158,169.662 627.492,169.328 626.5,169.5C 627.991,166.77 629.325,166.937 630.5,170C 629.906,170.464 629.239,170.631 628.5,170.5 Z"/></g>
<g><path style="opacity:0.004" fill="#fefffe" d="M 644.5,180.5 C 644.369,179.624 644.702,178.957 645.5,178.5C 646.873,180.808 646.54,181.475 644.5,180.5 Z"/></g>
<g><path style="opacity:0.004" fill="#fefffe" d="M 352.5,181.5 C 351.833,181.5 351.5,181.833 351.5,182.5C 350.833,182.5 350.5,182.833 350.5,183.5C 349.624,183.631 348.957,183.298 348.5,182.5C 349.775,180.811 351.108,180.478 352.5,181.5 Z"/></g>
<g><path style="opacity:0.004" fill="#fefffe" d="M 335.5,195.5 C 336.833,196.167 336.833,196.167 335.5,195.5 Z"/></g>
<g><path style="opacity:0.004" fill="#fefffe" d="M 660.5,195.5 C 661.833,196.167 661.833,196.167 660.5,195.5 Z"/></g>
<g><path style="opacity:0.004" fill="#fefffe" d="M 325.5,209.5 C 326.833,210.167 326.833,210.167 325.5,209.5 Z"/></g>
<g><path style="opacity:0.004" fill="#fefffe" d="M 670.5,210.5 C 671.525,210.897 671.692,211.563 671,212.5C 670.536,211.906 670.369,211.239 670.5,210.5 Z"/></g>
<g><path style="opacity:0.004" fill="#fefffe" d="M 671.5,215.5 C 670.833,214.167 670.833,214.167 671.5,215.5 Z"/></g>
<g><path style="opacity:0.004" fill="#fefffe" d="M 671.5,215.5 C 672.833,216.167 672.833,216.167 671.5,215.5 Z"/></g>
<g><path style="opacity:0.004" fill="#fefffe" d="M 674.5,222.5 C 675.525,222.897 675.692,223.563 675,224.5C 674.536,223.906 674.369,223.239 674.5,222.5 Z"/></g>
<g><path style="opacity:0.004" fill="#fefffe" d="M 316.5,244.5 C 317.613,245.946 317.78,247.613 317,249.5C 316.506,247.866 316.34,246.199 316.5,244.5 Z"/></g>
<g><path style="opacity:0.004" fill="#fefffe" d="M 679.5,245.5 C 680.525,245.897 680.692,246.563 680,247.5C 679.536,246.906 679.369,246.239 679.5,245.5 Z"/></g>
<g><path style="opacity:0.004" fill="#fefffe" d="M 679.5,249.5 C 680.525,249.897 680.692,250.563 680,251.5C 679.536,250.906 679.369,250.239 679.5,249.5 Z"/></g>
<g><path style="opacity:0.153" fill="#95a3b0" d="M 483.5,157.5 C 482.957,157.56 482.624,157.893 482.5,158.5C 489,159.735 495.5,159.735 502,158.5C 503.627,158.625 505.127,159.125 506.5,160C 520.833,160.167 535.167,160.333 549.5,160.5C 564.183,160.499 578.516,159.833 592.5,158.5C 595.366,159.965 598.366,160.965 601.5,161.5C 536.583,161.208 471.583,161.541 406.5,162.5C 400.115,163.226 393.782,164.226 387.5,165.5C 357.419,177.247 336.753,198.247 325.5,228.5C 322.001,241.511 320.668,254.844 321.5,268.5C 335.833,268.5 350.167,268.5 364.5,268.5C 364.526,260.141 365.026,251.807 366,243.5C 368.523,238.271 370.856,232.938 373,227.5C 374.715,225.241 376.548,223.074 378.5,221C 382.775,217.486 387.108,214.153 391.5,211C 397.267,208.81 403.267,207.31 409.5,206.5C 469.164,205.333 528.831,205.167 588.5,206C 592.072,207.155 595.739,207.988 599.5,208.5C 604.721,211.927 610.054,215.094 615.5,218C 619.646,223.484 623.813,228.984 628,234.5C 631.359,245.558 632.859,256.891 632.5,268.5C 646.833,268.5 661.167,268.5 675.5,268.5C 675.423,253.269 673.59,238.269 670,223.5C 666.648,216.823 663.314,210.156 660,203.5C 645.491,183.468 626.325,170.468 602.5,164.5C 602.5,163.5 602.5,162.5 602.5,161.5C 606.487,161.284 610.32,161.951 614,163.5C 615.713,162.047 617.213,162.214 618.5,164C 617.5,164.333 616.5,164.667 615.5,165C 619.581,165.634 623.248,167.134 626.5,169.5C 626.842,170.338 627.508,170.672 628.5,170.5C 631.07,171.874 633.57,173.541 636,175.5C 637.829,176.466 639.662,176.633 641.5,176C 643.394,177.079 643.727,178.413 642.5,180C 643.094,180.464 643.761,180.631 644.5,180.5C 647.898,185.406 651.898,189.906 656.5,194C 658.058,194.21 659.391,194.71 660.5,195.5C 659.624,195.369 658.957,195.702 658.5,196.5C 668.581,210.383 675.081,225.716 678,242.5C 678.151,250.911 678.985,259.244 680.5,267.5C 680.27,269.626 679.27,271.293 677.5,272.5C 674.833,272.833 672.167,273.167 669.5,273.5C 663.523,271.989 656.69,271.322 649,271.5C 643.987,271.557 639.153,272.223 634.5,273.5C 633.304,273.154 633.304,272.654 634.5,272C 632.833,271.667 631.167,271.333 629.5,271C 628.697,266.586 628.197,262.086 628,257.5C 627.333,254.833 626.667,254.833 626,257.5C 625.333,255.833 625.333,254.167 626,252.5C 626.333,252.833 626.667,253.167 627,253.5C 627.577,249.112 627.244,244.779 626,240.5C 625.751,241.624 625.251,242.624 624.5,243.5C 623.289,242.726 623.289,241.893 624.5,241C 620.728,239.611 620.728,238.611 624.5,238C 623.934,237.005 623.267,236.172 622.5,235.5C 622.579,234.07 622.246,232.736 621.5,231.5C 619.757,229.679 618.257,227.679 617,225.5C 616.223,227.701 615.056,227.701 613.5,225.5C 615.092,223.775 614.758,222.775 612.5,222.5C 612.489,220.314 611.489,219.481 609.5,220C 610.056,220.383 610.389,220.883 610.5,221.5C 609.167,221.5 607.833,221.5 606.5,221.5C 606.33,220.178 606.663,219.011 607.5,218C 607.002,216.842 606.169,216.009 605,215.5C 603.699,216.893 602.199,217.393 600.5,217C 598.403,215.39 596.07,214.223 593.5,213.5C 595.027,211.67 594.527,210.67 592,210.5C 589.046,210.594 588.879,211.094 591.5,212C 590.892,212.87 590.059,213.37 589,213.5C 587.189,212.922 585.355,212.422 583.5,212C 584.623,210.956 585.956,210.29 587.5,210C 586.906,209.536 586.239,209.369 585.5,209.5C 585.918,208.778 586.584,208.278 587.5,208C 586.833,207.667 586.167,207.333 585.5,207C 527.5,206.333 469.5,206.333 411.5,207C 410.402,207.77 410.402,208.603 411.5,209.5C 402.159,211.344 393.492,214.844 385.5,220C 382.012,223.322 378.679,226.822 375.5,230.5C 373.643,234.874 371.81,239.207 370,243.5C 369.333,247.167 369.333,250.833 370,254.5C 370.333,253.833 370.667,253.167 371,252.5C 371.361,255.525 371.861,258.525 372.5,261.5C 372.363,263.107 371.696,264.441 370.5,265.5C 369.979,262.222 369.813,258.889 370,255.5C 368.839,260.416 368.173,265.416 368,270.5C 367.329,271.252 366.496,271.586 365.5,271.5C 350.833,271.5 336.167,271.5 321.5,271.5C 319.408,271.439 317.908,270.439 317,268.5C 316.002,271.028 315.169,271.028 314.5,268.5C 315,266.5 315.5,264.5 316,262.5C 316.359,265.544 317.026,265.878 318,263.5C 317.797,245.516 321.464,228.516 329,212.5C 331.091,209.741 332.758,206.741 334,203.5C 334.75,202.874 335.584,202.374 336.5,202C 336.167,201.667 335.833,201.333 335.5,201C 338.086,198.238 340.086,195.072 341.5,191.5C 342.086,191.709 342.586,192.043 343,192.5C 345.335,189.335 347.835,186.335 350.5,183.5C 351.167,183.5 351.5,183.167 351.5,182.5C 352.167,182.5 352.5,182.167 352.5,181.5C 356.105,179.073 359.605,176.407 363,173.5C 363.333,173.833 363.667,174.167 364,174.5C 365.052,172.189 366.885,170.856 369.5,170.5C 369.833,170.167 370.167,169.833 370.5,169.5C 369.833,168.833 369.167,168.167 368.5,167.5C 370.044,166.378 371.377,166.711 372.5,168.5C 374.22,167.066 376.22,166.233 378.5,166C 377.956,165.283 377.289,164.783 376.5,164.5C 378.022,162.181 380.022,161.847 382.5,163.5C 390.84,161.751 399.173,160.084 407.5,158.5C 407.389,159.117 407.056,159.617 406.5,160C 431.173,160.833 455.84,160.666 480.5,159.5C 479.757,158.818 479.091,158.151 478.5,157.5C 478.389,156.883 478.056,156.383 477.5,156C 480.167,155.333 482.833,155.333 485.5,156C 484.584,156.278 483.918,156.778 483.5,157.5 Z M 612.5,222.5 C 611.833,222.167 611.167,221.833 610.5,221.5C 610.389,220.883 610.056,220.383 609.5,220C 611.489,219.481 612.489,220.314 612.5,222.5 Z"/></g>
<g><path style="opacity:0.996" fill="#f5fbfd" d="M 601.5,161.5 C 601.833,161.5 602.167,161.5 602.5,161.5C 602.5,162.5 602.5,163.5 602.5,164.5C 626.325,170.468 645.491,183.468 660,203.5C 663.314,210.156 666.648,216.823 670,223.5C 673.59,238.269 675.423,253.269 675.5,268.5C 661.167,268.5 646.833,268.5 632.5,268.5C 632.859,256.891 631.359,245.558 628,234.5C 623.813,228.984 619.646,223.484 615.5,218C 610.054,215.094 604.721,211.927 599.5,208.5C 595.739,207.988 592.072,207.155 588.5,206C 528.831,205.167 469.164,205.333 409.5,206.5C 403.267,207.31 397.267,208.81 391.5,211C 387.108,214.153 382.775,217.486 378.5,221C 376.548,223.074 374.715,225.241 373,227.5C 370.856,232.938 368.523,238.271 366,243.5C 365.026,251.807 364.526,260.141 364.5,268.5C 350.167,268.5 335.833,268.5 321.5,268.5C 320.668,254.844 322.001,241.511 325.5,228.5C 336.753,198.247 357.419,177.247 387.5,165.5C 393.782,164.226 400.115,163.226 406.5,162.5C 471.583,161.541 536.583,161.208 601.5,161.5 Z M 612.5,222.5 C 611.833,222.167 611.167,221.833 610.5,221.5C 610.389,220.883 610.056,220.383 609.5,220C 611.489,219.481 612.489,220.314 612.5,222.5 Z"/></g>
<g><path style="opacity:0.004" fill="#fefffe" d="M 624.5,248.5 C 625.833,249.167 625.833,249.167 624.5,248.5 Z"/></g>
<g><path style="opacity:0.004" fill="#fefffe" d="M 371.5,242.5 C 372.797,244.693 372.797,247.027 371.5,249.5C 370.943,247.282 370.943,244.949 371.5,242.5 Z"/></g>
<g><path style="opacity:0.004" fill="#fefffe" d="M 622.5,235.5 C 621.923,236.773 621.257,236.773 620.5,235.5C 620.97,234.537 621.637,234.537 622.5,235.5 Z"/></g>
<g><path style="opacity:0.004" fill="#fefffe" d="M 610.5,221.5 C 611.167,221.833 611.833,222.167 612.5,222.5C 611.796,224.344 610.463,224.844 608.5,224C 609.381,223.292 610.047,222.458 610.5,221.5 Z"/></g>
<g><path style="opacity:0.004" fill="#fefffe" d="M 413.5,214.5 C 414.833,215.167 414.833,215.167 413.5,214.5 Z"/></g>
<g><path style="opacity:0.004" fill="#fefffe" d="M 398.5,215.5 C 398.897,214.475 399.563,214.308 400.5,215C 399.906,215.464 399.239,215.631 398.5,215.5 Z"/></g>
<g><path style="opacity:0.004" fill="#fefffe" d="M 552.5,213.5 C 553.833,214.167 553.833,214.167 552.5,213.5 Z"/></g>
<g><path style="opacity:0.005" fill="#fefffe" d="M 403.5,212.5 C 405.337,212.639 405.67,213.306 404.5,214.5C 403.702,214.043 403.369,213.376 403.5,212.5 Z"/></g>
<g><path style="opacity:0.004" fill="#fefffe" d="M 412.5,211.5 C 413.525,211.897 413.692,212.563 413,213.5C 412.536,212.906 412.369,212.239 412.5,211.5 Z"/></g>
<g><path style="opacity:0.004" fill="#fefffe" d="M 575.5,210.5 C 577.657,211.053 577.49,212.053 575,213.5C 574.53,212.423 574.697,211.423 575.5,210.5 Z"/></g>
<g><path style="opacity:0.251" fill="#808b97" d="M 585.5,209.5 C 527.5,209.5 469.5,209.5 411.5,209.5C 410.402,208.603 410.402,207.77 411.5,207C 469.5,206.333 527.5,206.333 585.5,207C 586.167,207.333 586.833,207.667 587.5,208C 586.584,208.278 585.918,208.778 585.5,209.5 Z"/></g>
<g><path style="opacity:0.004" fill="#fefffe" d="M 316.5,251.5 C 317.833,252.167 317.833,252.167 316.5,251.5 Z"/></g>
<g><path style="opacity:0.004" fill="#fefffe" d="M 315.5,253.5 C 316.598,254.601 316.765,255.934 316,257.5C 315.51,256.207 315.343,254.873 315.5,253.5 Z"/></g>
<g><path style="opacity:0.004" fill="#fefffe" d="M 373.5,253.5 C 374.675,253.281 375.675,253.614 376.5,254.5C 374.948,255.798 373.948,255.465 373.5,253.5 Z"/></g>
<g><path style="opacity:0.004" fill="#fefffe" d="M 620.5,253.5 C 621.675,253.281 622.675,253.614 623.5,254.5C 621.948,255.798 620.948,255.465 620.5,253.5 Z"/></g>
<g><path style="opacity:0.004" fill="#fefffe" d="M 680.5,255.5 C 681.833,256.167 681.833,256.167 680.5,255.5 Z"/></g>
<g><path style="opacity:0.004" fill="#fefffe" d="M 625.5,259.5 C 626.622,261.288 626.789,263.288 626,265.5C 625.505,263.527 625.338,261.527 625.5,259.5 Z"/></g>
<g><path style="opacity:0.004" fill="#fefffe" d="M 370.5,267.5 C 371.833,268.167 371.833,268.167 370.5,267.5 Z"/></g>
<g><path style="opacity:0.004" fill="#fefffe" d="M 625.5,268.5 C 626.833,269.167 626.833,269.167 625.5,268.5 Z"/></g>
<g><path style="opacity:0.004" fill="#fefffe" d="M 682.5,268.5 C 683.833,269.167 683.833,269.167 682.5,268.5 Z"/></g>
<g><path style="opacity:0.01" fill="#f6f6f7" d="M 321.5,271.5 C 336.167,271.5 350.833,271.5 365.5,271.5C 365.389,272.117 365.056,272.617 364.5,273C 357.333,273.167 350.167,273.333 343,273.5C 335.467,273.497 328.301,272.831 321.5,271.5 Z"/></g>
<g><path style="opacity:0.004" fill="#fefffe" d="M 303.5,273.5 C 304.833,274.167 304.833,274.167 303.5,273.5 Z"/></g>
<g><path style="opacity:0.004" fill="#fefffe" d="M 656.5,273.5 C 657.833,274.167 657.833,274.167 656.5,273.5 Z"/></g>
<g><path style="opacity:0.004" fill="#fefffe" d="M 614.5,276.5 C 615.833,277.167 615.833,277.167 614.5,276.5 Z"/></g>
<g><path style="opacity:0.004" fill="#fefffe" d="M 294.5,277.5 C 295.833,278.167 295.833,278.167 294.5,277.5 Z"/></g>
<g><path style="opacity:0.004" fill="#fefffe" d="M 339.5,277.5 C 340.833,278.167 340.833,278.167 339.5,277.5 Z"/></g>
<g><path style="opacity:0.004" fill="#fefffe" d="M 416.5,278.5 C 416.897,277.475 417.563,277.308 418.5,278C 417.906,278.464 417.239,278.631 416.5,278.5 Z"/></g>
<g><path style="opacity:0.004" fill="#fefffe" d="M 421.5,277.5 C 422.833,278.167 422.833,278.167 421.5,277.5 Z"/></g>
<g><path style="opacity:0.004" fill="#fefffe" d="M 538.5,278.5 C 539.251,277.427 540.251,277.26 541.5,278C 540.552,278.483 539.552,278.649 538.5,278.5 Z"/></g>
<g><path style="opacity:0.004" fill="#fefffe" d="M 597.5,277.5 C 598.833,278.167 598.833,278.167 597.5,277.5 Z"/></g>
<g><path style="opacity:0.004" fill="#fefffe" d="M 607.5,277.5 C 608.833,278.167 608.833,278.167 607.5,277.5 Z"/></g>
<g><path style="opacity:0.004" fill="#fefffe" d="M 620.5,277.5 C 621.833,278.167 621.833,278.167 620.5,277.5 Z"/></g>
<g><path style="opacity:0.004" fill="#fefffe" d="M 630.5,277.5 C 631.833,278.167 631.833,278.167 630.5,277.5 Z"/></g>
<g><path style="opacity:0.004" fill="#fefffe" d="M 634.5,277.5 C 635.833,278.167 635.833,278.167 634.5,277.5 Z"/></g>
<g><path style="opacity:0.004" fill="#fefffe" d="M 638.5,277.5 C 639.833,278.167 639.833,278.167 638.5,277.5 Z"/></g>
<g><path style="opacity:0.004" fill="#fefffe" d="M 644.5,278.5 C 644.897,277.475 645.563,277.308 646.5,278C 645.906,278.464 645.239,278.631 644.5,278.5 Z"/></g>
<g><path style="opacity:0.004" fill="#fefffe" d="M 648.5,277.5 C 649.833,278.167 649.833,278.167 648.5,277.5 Z"/></g>
<g><path style="opacity:0.004" fill="#fefffe" d="M 659.5,277.5 C 660.833,278.167 660.833,278.167 659.5,277.5 Z"/></g>
<g><path style="opacity:0.004" fill="#fefffe" d="M 661.5,277.5 C 662.833,278.167 662.833,278.167 661.5,277.5 Z"/></g>
<g><path style="opacity:0.004" fill="#fefffe" d="M 716.5,277.5 C 717.833,278.167 717.833,278.167 716.5,277.5 Z"/></g>
<g><path style="opacity:0.004" fill="#fefffe" d="M 743.5,277.5 C 744.833,278.167 744.833,278.167 743.5,277.5 Z"/></g>
<g><path style="opacity:0.004" fill="#fefffe" d="M 747.5,277.5 C 748.833,278.167 748.833,278.167 747.5,277.5 Z"/></g>
<g><path style="opacity:0.004" fill="#fefffe" d="M 770.5,277.5 C 771.833,278.167 771.833,278.167 770.5,277.5 Z"/></g>
<g><path style="opacity:0.004" fill="#fefffe" d="M 274.5,278.5 C 275.833,279.167 275.833,279.167 274.5,278.5 Z"/></g>
<g><path style="opacity:0.004" fill="#fefffe" d="M 505.5,278.5 C 506.833,279.167 506.833,279.167 505.5,278.5 Z"/></g>
<g><path style="opacity:0.004" fill="#fefffe" d="M 737.5,278.5 C 738.833,279.167 738.833,279.167 737.5,278.5 Z"/></g>
<g><path style="opacity:0.004" fill="#fefffe" d="M 776.5,279.5 C 777.946,278.387 779.613,278.22 781.5,279C 779.866,279.494 778.199,279.66 776.5,279.5 Z"/></g>
<g><path style="opacity:0.928" fill="#c9d3d9" d="M 794.5,284.5 C 794.443,285.609 794.11,286.609 793.5,287.5C 789.427,286.991 785.427,286.158 781.5,285C 590.127,284.169 398.794,284.336 207.5,285.5C 206.833,284.167 206.167,282.833 205.5,281.5C 207.292,281.634 208.958,281.301 210.5,280.5C 210.804,281.15 211.137,281.817 211.5,282.5C 402.166,283.5 592.832,283.833 783.5,283.5C 783.5,282.5 783.5,281.5 783.5,280.5C 786.582,282.069 789.415,281.735 792,279.5C 792.785,281.249 793.618,282.916 794.5,284.5 Z"/></g>
<g><path style="opacity:0.722" fill="#8e9eae" d="M 210.5,280.5 C 401.5,280.5 592.5,280.5 783.5,280.5C 783.5,281.5 783.5,282.5 783.5,283.5C 592.832,283.833 402.166,283.5 211.5,282.5C 211.137,281.817 210.804,281.15 210.5,280.5 Z"/></g>
<g><path style="opacity:0.004" fill="#fefffe" d="M 175.5,285.5 C 176.525,285.897 176.692,286.563 176,287.5C 175.536,286.906 175.369,286.239 175.5,285.5 Z"/></g>
<g><path style="opacity:0.997" fill="#f6fcfe" d="M 793.5,287.5 C 798.676,288.958 804.009,290.125 809.5,291C 819.511,296.002 828.844,302.002 837.5,309C 842.9,312.392 847.733,316.559 852,321.5C 857.096,329.391 861.93,337.391 866.5,345.5C 867.575,350.816 869.408,355.816 872,360.5C 878.997,413.672 885.664,467.005 892,520.5C 892.77,521.598 893.603,521.598 894.5,520.5C 895.167,521.833 895.833,523.167 896.5,524.5C 895.504,524.586 894.671,524.252 894,523.5C 893.833,525.5 893.667,527.5 893.5,529.5C 894.624,550.335 896.624,571.002 899.5,591.5C 900.5,591.5 901.5,591.5 902.5,591.5C 905.182,590.444 906.349,591.444 906,594.5C 905.617,593.944 905.117,593.611 904.5,593.5C 904.44,592.957 904.107,592.624 903.5,592.5C 902.779,594.686 902.113,596.853 901.5,599C 839.168,599.5 776.834,599.667 714.5,599.5C 713.2,568.851 712.034,538.184 711,507.5C 710.01,499.526 709.176,491.526 708.5,483.5C 707.646,482.478 706.646,481.645 705.5,481C 697.333,480.833 689.167,480.667 681,480.5C 672.472,480.502 664.305,481.169 656.5,482.5C 655.883,482.611 655.383,482.944 655,483.5C 652.529,522.116 651.362,560.782 651.5,599.5C 613.167,599.5 574.833,599.5 536.5,599.5C 537.538,596.137 539.871,594.137 543.5,593.5C 544.496,593.586 545.329,593.252 546,592.5C 549.489,585.381 549.323,578.381 545.5,571.5C 543.972,570.139 542.305,568.972 540.5,568C 510.833,567.333 481.167,567.333 451.5,568C 449.667,568.5 448.5,569.667 448,571.5C 447.685,574.372 447.185,577.205 446.5,580C 447.167,581 447.833,582 448.5,583C 447.305,588.23 448.972,592.397 453.5,595.5C 454.429,596.689 454.762,598.022 454.5,599.5C 420.833,599.5 387.167,599.5 353.5,599.5C 353.5,600.5 353.5,601.5 353.5,602.5C 387.5,602.5 421.5,602.5 455.5,602.5C 421.183,602.846 386.85,603.846 352.5,605.5C 349.972,604.502 349.972,603.669 352.5,603C 351.594,601.301 351.261,599.467 351.5,597.5C 352.822,597.33 353.989,597.663 355,598.5C 354.504,577.179 354.504,555.845 355,534.5C 355.705,528.434 357.538,522.768 360.5,517.5C 368.373,510.127 376.039,502.627 383.5,495C 385.754,493.623 387.92,492.123 390,490.5C 392.679,484.471 396.346,479.138 401,474.5C 403.04,467.642 405.373,460.975 408,454.5C 415.415,423.302 409.082,395.302 389,370.5C 380.088,360.797 369.254,354.13 356.5,350.5C 352.307,351.022 350.307,353.355 350.5,357.5C 351,361.5 351.5,365.5 352,369.5C 354.386,384.992 357.22,400.326 360.5,415.5C 358.461,424.054 353.794,430.888 346.5,436C 338.252,441.237 330.252,446.904 322.5,453C 317.167,453.667 311.833,453.667 306.5,453C 300.193,450.974 293.86,449.141 287.5,447.5C 287.5,448.5 287.5,449.5 287.5,450.5C 286.29,450.068 285.29,449.401 284.5,448.5C 285.478,448.189 286.145,447.522 286.5,446.5C 283.549,444.105 280.216,442.439 276.5,441.5C 274.192,438.025 271.692,434.692 269,431.5C 267.328,424.774 265.495,418.107 263.5,411.5C 262.308,397.348 260.141,383.348 257,369.5C 253.817,367.477 250.317,366.977 246.5,368C 241.675,372.124 237.175,376.624 233,381.5C 230.319,387.373 227.819,393.373 225.5,399.5C 225.876,401.803 226.876,402.137 228.5,400.5C 228.573,402.027 227.906,403.027 226.5,403.5C 225.85,403.196 225.183,402.863 224.5,402.5C 222.104,408.627 220.271,414.96 219,421.5C 218.279,432.863 218.612,444.196 220,455.5C 223.182,464.864 227.182,473.864 232,482.5C 244.805,495.978 258.138,508.645 272,520.5C 274.108,524.263 275.608,528.263 276.5,532.5C 277.5,554.823 277.833,577.157 277.5,599.5C 217.167,599.5 156.833,599.5 96.5,599.5C 98.8765,574.45 101.21,549.45 103.5,524.5C 103.483,521.087 102.816,518.087 101.5,515.5C 102.234,514.292 102.567,512.959 102.5,511.5C 103.222,511.918 103.722,512.584 104,513.5C 104.333,513.167 104.667,512.833 105,512.5C 106.899,499.205 108.066,485.872 108.5,472.5C 109.5,472.5 110.5,472.5 111.5,472.5C 112.234,458.353 114.068,444.353 117,430.5C 118.24,405.151 121.074,379.984 125.5,355C 125.316,353.624 124.649,352.791 123.5,352.5C 123.833,351.5 124.5,350.833 125.5,350.5C 125.56,351.043 125.893,351.376 126.5,351.5C 129.59,344.977 133.423,338.977 138,333.5C 138.511,331.122 139.178,328.788 140,326.5C 145.435,318.813 152.268,312.646 160.5,308C 165.71,302.14 172.043,297.807 179.5,295C 181.436,294.187 183.436,293.687 185.5,293.5C 185.5,292.5 185.5,291.5 185.5,290.5C 192.843,288.829 200.176,287.162 207.5,285.5C 398.794,284.336 590.127,284.169 781.5,285C 785.427,286.158 789.427,286.991 793.5,287.5 Z M 514.5,353.5 C 512.859,354.871 511.859,356.704 511.5,359C 515.707,369.409 517.54,368.909 517,357.5C 518.265,365.469 518.598,373.469 518,381.5C 516.844,380.007 516.01,380.174 515.5,382C 516.767,383.667 518.267,385.167 520,386.5C 520.667,392.833 520.667,399.167 520,405.5C 519.301,400.719 518.801,400.553 518.5,405C 518.827,406.813 519.493,408.48 520.5,410C 520.095,410.945 519.428,411.612 518.5,412C 521.956,413.349 523.123,415.849 522,419.5C 521.506,417.866 521.34,416.199 521.5,414.5C 520.5,414.5 519.5,414.5 518.5,414.5C 518.979,418.56 519.479,422.56 520,426.5C 518.935,421.735 517.602,422.069 516,427.5C 515,427.167 514,426.833 513,426.5C 511.033,427.731 511.199,428.731 513.5,429.5C 515.071,428.691 516.738,428.357 518.5,428.5C 518.136,431.801 516.969,434.801 515,437.5C 514.421,433.614 513.588,433.614 512.5,437.5C 513.635,440.079 513.301,442.413 511.5,444.5C 510.603,445.681 510.103,447.681 510,450.5C 509.5,481.498 509.333,512.498 509.5,543.5C 506.279,544.573 503.112,544.573 500,543.5C 499.5,544 499,544.5 498.5,545C 502.313,546.262 506.313,546.929 510.5,547C 504.843,547.499 499.176,547.666 493.5,547.5C 494.609,546.71 495.942,546.21 497.5,546C 494.579,543.12 491.246,542.787 487.5,545C 486.402,545.77 486.402,546.603 487.5,547.5C 486.5,547.5 485.5,547.5 484.5,547.5C 484.414,546.504 484.748,545.671 485.5,545C 484.671,513.572 484.171,482.072 484,450.5C 483.667,448.167 483.333,445.833 483,443.5C 479.688,438.379 476.855,433.045 474.5,427.5C 476.507,428.679 476.84,428.179 475.5,426C 476.624,425.751 477.624,425.251 478.5,424.5C 476.978,423.438 475.312,422.771 473.5,422.5C 471.927,419.639 471.261,416.472 471.5,413C 473.217,398.096 475.05,383.263 477,368.5C 478.011,367.663 479.178,367.33 480.5,367.5C 480.002,364.99 479.336,362.49 478.5,360C 478.514,358.615 478.848,357.449 479.5,356.5C 479.343,355.127 479.51,353.793 480,352.5C 481.493,354.56 483.326,354.893 485.5,353.5C 485.137,352.817 484.804,352.15 484.5,351.5C 491.996,348.742 499.329,349.075 506.5,352.5C 509.516,350.931 512.183,351.264 514.5,353.5 Z M 618.5,354.5 C 619.151,353.909 619.818,353.243 620.5,352.5C 621.318,354.108 621.985,355.775 622.5,357.5C 620.827,359.523 620.16,361.856 620.5,364.5C 623.214,364.75 625.881,364.917 628.5,365C 627.619,364.292 626.953,363.458 626.5,362.5C 627.5,362.5 628.5,362.5 629.5,362.5C 630.952,363.302 632.618,363.802 634.5,364C 632.866,364.494 631.199,364.66 629.5,364.5C 629.665,368.864 630.998,369.364 633.5,366C 636.117,365.178 638.784,364.678 641.5,364.5C 641.238,365.978 641.571,367.311 642.5,368.5C 643.711,366.578 645.044,364.745 646.5,363C 645.004,362.493 643.837,362.993 643,364.5C 643.027,362.583 643.861,360.916 645.5,359.5C 644.757,358.818 644.091,358.151 643.5,357.5C 644.364,356.312 645.364,355.145 646.5,354C 666.859,353.131 687.193,353.465 707.5,355C 709.7,357.046 712.367,358.046 715.5,358C 713.699,358.317 713.366,358.984 714.5,360C 716.025,361.009 717.692,361.509 719.5,361.5C 719.281,362.675 719.614,363.675 720.5,364.5C 721.244,363.009 721.91,361.509 722.5,360C 721.167,359.667 719.833,359.333 718.5,359C 721.053,358.149 723.386,358.482 725.5,360C 722.972,360.669 722.972,361.502 725.5,362.5C 726.258,361.189 727.258,360.689 728.5,361C 729.004,362.964 729.671,364.797 730.5,366.5C 731.7,365.469 733.034,364.635 734.5,364C 733.5,363.667 732.5,363.333 731.5,363C 734.207,362.672 736.874,363.005 739.5,364C 738.062,364.219 736.729,364.719 735.5,365.5C 735.709,366.086 736.043,366.586 736.5,367C 738.101,367.273 739.601,367.773 741,368.5C 741.249,367.376 741.749,366.376 742.5,365.5C 747.46,366.911 751.794,369.244 755.5,372.5C 754.624,372.369 753.957,372.702 753.5,373.5C 756.696,374.524 759.529,376.191 762,378.5C 764.506,376.917 766.173,377.584 767,380.5C 768.871,379.332 770.371,379.832 771.5,382C 768.957,384.351 769.623,385.517 773.5,385.5C 773.833,386.833 774.167,386.833 774.5,385.5C 776.932,386.75 779.266,388.25 781.5,390C 783.418,392.731 785.418,395.231 787.5,397.5C 787.167,397.5 786.833,397.5 786.5,397.5C 787.238,400.626 788.905,401.96 791.5,401.5C 794.258,403.906 796.591,406.739 798.5,410C 796.928,413.19 797.761,415.69 801,417.5C 803.557,416.354 804.89,417.354 805,420.5C 805.333,420.167 805.667,419.833 806,419.5C 807.851,423.343 809.684,427.176 811.5,431C 810.852,432.44 810.519,433.94 810.5,435.5C 813.68,435.176 814.847,436.51 814,439.5C 813.577,438.044 812.744,437.544 811.5,438C 812.255,440.922 812.755,444.089 813,447.5C 811.413,446.273 810.079,446.606 809,448.5C 807.955,447.627 807.122,446.627 806.5,445.5C 808.028,445.483 808.528,444.816 808,443.5C 805.26,442.856 802.76,441.689 800.5,440C 797.87,436.368 794.87,433.035 791.5,430C 793.929,429.549 794.096,428.715 792,427.5C 790.951,428.517 789.784,428.684 788.5,428C 785.158,424.326 781.492,420.992 777.5,418C 778.308,417.692 778.975,417.192 779.5,416.5C 778.224,415.355 776.891,415.355 775.5,416.5C 774.702,416.043 774.369,415.376 774.5,414.5C 770.758,413.953 767.425,412.453 764.5,410C 755.553,408.487 746.553,408.154 737.5,409C 734.429,409.147 731.596,409.98 729,411.5C 727.085,410.084 725.585,410.418 724.5,412.5C 723.167,412.833 723.167,413.167 724.5,413.5C 719.747,417.26 716.08,421.927 713.5,427.5C 711.833,428.167 710.167,428.833 708.5,429.5C 708.846,430.696 709.346,430.696 710,429.5C 709.926,434.792 708.76,439.792 706.5,444.5C 706.5,445.167 706.5,445.833 706.5,446.5C 705.763,448.382 704.596,449.048 703,448.5C 702.28,450.112 702.446,451.612 703.5,453C 701.519,453.605 701.185,454.605 702.5,456C 697.833,456.667 693.167,456.667 688.5,456C 690.271,455.465 690.604,454.631 689.5,453.5C 682.845,456.288 676.178,456.621 669.5,454.5C 667.477,456.173 665.144,456.84 662.5,456.5C 662.657,455.127 662.49,453.793 662,452.5C 661.333,451.167 660.667,451.167 660,452.5C 659.342,450.892 659.842,449.725 661.5,449C 657.188,447.456 655.022,448.956 655,453.5C 654.597,448.133 653.93,442.799 653,437.5C 652.617,436.944 652.117,436.611 651.5,436.5C 651.5,436.167 651.5,435.833 651.5,435.5C 650.014,431.863 648.014,428.53 645.5,425.5C 646.167,425.5 646.833,425.5 647.5,425.5C 647.06,422.737 645.727,421.737 643.5,422.5C 639.201,418.538 634.201,415.871 628.5,414.5C 624.469,415.848 621.136,418.181 618.5,421.5C 617.914,421.291 617.414,420.957 617,420.5C 616.044,421.579 615.211,422.745 614.5,424C 615.738,423.923 616.738,424.089 617.5,424.5C 616.975,425.192 616.308,425.692 615.5,426C 604.864,426.418 594.364,426.918 584,427.5C 578.794,426.353 573.794,424.687 569,422.5C 568.667,423.5 568.333,424.5 568,425.5C 567.495,423.482 566.995,421.482 566.5,419.5C 566.5,401.167 566.5,382.833 566.5,364.5C 566.993,360.142 568.326,356.142 570.5,352.5C 571.5,352.5 572.5,352.5 573.5,352.5C 573.082,353.222 572.416,353.722 571.5,354C 572.793,354.49 574.127,354.657 575.5,354.5C 575.5,352.833 575.5,351.167 575.5,349.5C 576.833,349.5 578.167,349.5 579.5,349.5C 579.272,354.938 581.272,355.938 585.5,352.5C 586.833,353.167 588.167,353.833 589.5,354.5C 593.699,352.376 598.032,352.043 602.5,353.5C 606.35,352.304 606.35,351.138 602.5,350C 604.167,349.333 605.833,349.333 607.5,350C 606.167,351.333 606.167,352.667 607.5,354C 611.152,354.499 614.818,354.665 618.5,354.5 Z M 397.5,390.5 C 395.775,390.157 395.275,389.157 396,387.5C 396.513,388.527 397.013,389.527 397.5,390.5 Z M 591.5,350.5 C 592.077,349.227 592.743,349.227 593.5,350.5C 593.03,351.463 592.363,351.463 591.5,350.5 Z M 569.5,424.5 C 571.308,424.491 572.975,424.991 574.5,426C 573.667,426.167 572.833,426.333 572,426.5C 570.624,426.316 569.791,425.649 569.5,424.5 Z M 812.5,448.5 C 817.719,447.907 818.386,448.907 814.5,451.5C 813.205,450.902 811.872,450.402 810.5,450C 811.416,449.722 812.082,449.222 812.5,448.5 Z M 801.5,414.5 C 799.663,414.361 799.33,413.694 800.5,412.5C 801.298,412.957 801.631,413.624 801.5,414.5 Z M 625.5,361.5 C 623.972,361.483 623.472,360.816 624,359.5C 624.717,360.044 625.217,360.711 625.5,361.5 Z M 349.5,533.5 C 351.337,533.639 351.67,534.306 350.5,535.5C 349.702,535.043 349.369,534.376 349.5,533.5 Z M 350.5,564.5 C 351.562,566.099 351.562,567.766 350.5,569.5C 349.215,567.187 349.215,565.52 350.5,564.5 Z M 541.5,574.5 C 542.077,573.227 542.743,573.227 543.5,574.5C 543.03,575.463 542.363,575.463 541.5,574.5 Z"/></g>
<g><path style="opacity:0.004" fill="#fefffe" d="M 816.5,286.5 C 817.833,287.167 817.833,287.167 816.5,286.5 Z"/></g>
<g><path style="opacity:0.004" fill="#fefffe" d="M 821.5,287.5 C 822.833,288.167 822.833,288.167 821.5,287.5 Z"/></g>
<g><path style="opacity:0.004" fill="#fefffe" d="M 821.5,288.5 C 821.649,289.552 821.483,290.552 821,291.5C 820.26,290.251 820.427,289.251 821.5,288.5 Z"/></g>
<g><path style="opacity:0.616" fill="#92a0ae" d="M 205.5,281.5 C 206.167,282.833 206.833,284.167 207.5,285.5C 200.176,287.162 192.843,288.829 185.5,290.5C 185.5,291.5 185.5,292.5 185.5,293.5C 183.436,293.687 181.436,294.187 179.5,295C 172.043,297.807 165.71,302.14 160.5,308C 152.268,312.646 145.435,318.813 140,326.5C 139.178,328.788 138.511,331.122 138,333.5C 133.423,338.977 129.59,344.977 126.5,351.5C 125.893,351.376 125.56,351.043 125.5,350.5C 126.048,344.675 128.048,339.509 131.5,335C 129.758,331.798 130.425,329.298 133.5,327.5C 134.251,328.376 134.751,329.376 135,330.5C 140.665,320.399 148.999,311.066 160,302.5C 159.149,299.032 160.483,298.032 164,299.5C 164.945,299.095 165.612,298.428 166,297.5C 166.333,297.833 166.667,298.167 167,298.5C 168.448,296.106 170.614,294.606 173.5,294C 171.152,292.312 170.985,290.478 173,288.5C 173.923,289.759 174.757,291.092 175.5,292.5C 176.429,291.311 176.762,289.978 176.5,288.5C 177.5,288.5 178.5,288.5 179.5,288.5C 181.182,285.107 183.349,284.774 186,287.5C 190.438,285.979 194.938,284.645 199.5,283.5C 200.522,282.646 201.355,281.646 202,280.5C 202.704,282.727 203.871,283.06 205.5,281.5 Z M 179.5,288.5 C 180.773,289.077 180.773,289.743 179.5,290.5C 178.537,290.03 178.537,289.363 179.5,288.5 Z"/></g>
<g><path style="opacity:0.004" fill="#fefffe" d="M 152.5,305.5 C 152.897,304.475 153.563,304.308 154.5,305C 153.906,305.464 153.239,305.631 152.5,305.5 Z"/></g>
<g><path style="opacity:0.004" fill="#fefffe" d="M 850.5,314.5 C 851.833,315.167 851.833,315.167 850.5,314.5 Z"/></g>
<g><path style="opacity:0.004" fill="#fefffe" d="M 855.5,318.5 C 856.833,319.167 856.833,319.167 855.5,318.5 Z"/></g>
<g><path style="opacity:0.004" fill="#fefffe" d="M 119.5,340.5 C 120.833,341.167 120.833,341.167 119.5,340.5 Z"/></g>
<g><path style="opacity:0.004" fill="#fefffe" d="M 119.5,341.5 C 119.631,342.239 119.464,342.906 119,343.5C 118.308,342.563 118.475,341.897 119.5,341.5 Z"/></g>
<g><path style="opacity:0.004" fill="#fefffe" d="M 872.5,347.5 C 871.475,347.103 871.308,346.437 872,345.5C 872.464,346.094 872.631,346.761 872.5,347.5 Z"/></g>
<g><path style="opacity:0.005" fill="#fefffe" d="M 872.5,347.5 C 874.332,348.14 874.665,349.14 873.5,350.5C 872.614,349.675 872.281,348.675 872.5,347.5 Z"/></g>
<g><path style="opacity:0.007" fill="#fcfdfd" d="M 643.5,357.5 C 644.091,358.151 644.757,358.818 645.5,359.5C 643.861,360.916 643.027,362.583 643,364.5C 643.837,362.993 645.004,362.493 646.5,363C 645.044,364.745 643.711,366.578 642.5,368.5C 641.571,367.311 641.238,365.978 641.5,364.5C 638.784,364.678 636.117,365.178 633.5,366C 630.998,369.364 629.665,368.864 629.5,364.5C 631.199,364.66 632.866,364.494 634.5,364C 632.618,363.802 630.952,363.302 629.5,362.5C 632.167,362.5 634.833,362.5 637.5,362.5C 637.833,363.833 638.167,363.833 638.5,362.5C 639.9,361.9 640.9,360.9 641.5,359.5C 641.833,360.833 642.167,360.833 642.5,359.5C 642.328,358.508 642.662,357.842 643.5,357.5 Z"/></g>
<g><path style="opacity:0.004" fill="#fefffe" d="M 119.5,360.5 C 118.475,360.103 118.308,359.437 119,358.5C 119.464,359.094 119.631,359.761 119.5,360.5 Z"/></g>
<g><path style="opacity:0.449" fill="#a2afbb" d="M 351.5,597.5 C 351.268,589.905 351.268,582.238 351.5,574.5C 351.634,572.708 351.301,571.042 350.5,569.5C 351.562,567.766 351.562,566.099 350.5,564.5C 351.833,563.833 351.833,563.167 350.5,562.5C 350.5,560.833 350.5,559.167 350.5,557.5C 351.625,556.652 351.625,555.652 350.5,554.5C 351.751,551.207 351.751,547.874 350.5,544.5C 349.914,544.709 349.414,545.043 349,545.5C 348.172,540.798 348.338,536.131 349.5,531.5C 350.086,531.709 350.586,532.043 351,532.5C 352.31,528.93 353.143,525.263 353.5,521.5C 355.726,518.091 358.226,514.758 361,511.5C 362.707,509.091 363.54,506.425 363.5,503.5C 368.51,503.489 372.844,501.322 376.5,497C 375.273,495.413 375.606,494.079 377.5,493C 379.167,492.667 380.833,492.333 382.5,492C 383.781,489.597 385.614,487.763 388,486.5C 389.505,484.702 389.672,482.868 388.5,481C 389.449,480.383 390.282,480.549 391,481.5C 395.167,476.831 398,471.497 399.5,465.5C 404.156,458.037 406.489,449.703 406.5,440.5C 407.833,438.5 407.833,436.5 406.5,434.5C 406.5,434.167 406.5,433.833 406.5,433.5C 409.018,432.306 409.018,431.14 406.5,430C 407.807,428.057 407.807,426.223 406.5,424.5C 406.5,421.5 406.5,418.5 406.5,415.5C 405.766,414.292 405.433,412.959 405.5,411.5C 404.086,405.244 401.919,399.244 399,393.5C 397.125,392.377 394.958,392.377 392.5,393.5C 392.548,390.687 393.215,388.021 394.5,385.5C 392.866,385.488 391.366,384.488 390,382.5C 389.544,381.256 390.044,380.423 391.5,380C 390.257,378.846 389.257,377.512 388.5,376C 387.167,375.667 385.833,375.333 384.5,375C 385.167,374.667 385.833,374.333 386.5,374C 384.963,372.293 383.296,370.793 381.5,369.5C 380.713,367.896 379.38,367.229 377.5,367.5C 377.762,366.022 377.429,364.689 376.5,363.5C 370.874,359.737 364.874,356.737 358.5,354.5C 355.441,354.667 354.441,356.001 355.5,358.5C 358.402,356.197 359.236,357.197 358,361.5C 357.586,361.043 357.086,360.709 356.5,360.5C 355.345,363.446 355.179,366.446 356,369.5C 357.827,368.816 359.327,369.483 360.5,371.5C 359.675,372.386 358.675,372.719 357.5,372.5C 358.995,386.775 361.328,400.942 364.5,415C 364.651,420.885 362.651,425.885 358.5,430C 358.833,430.333 359.167,430.667 359.5,431C 356.456,431.359 356.122,432.026 358.5,433C 353.832,436.288 348.832,439.288 343.5,442C 346.279,442.149 346.779,442.983 345,444.5C 343.951,443.483 342.784,443.316 341.5,444C 336.015,448.112 330.015,452.445 323.5,457C 322.167,457.333 320.833,457.667 319.5,458C 320.765,459.337 321.265,460.837 321,462.5C 318.2,461.875 315.366,461.208 312.5,460.5C 312.977,459.522 313.643,458.689 314.5,458C 310.167,457.667 305.833,457.333 301.5,457C 302.5,456.667 303.5,456.333 304.5,456C 302.866,455.506 301.199,455.34 299.5,455.5C 295.827,453.339 291.827,451.672 287.5,450.5C 287.5,449.5 287.5,448.5 287.5,447.5C 293.86,449.141 300.193,450.974 306.5,453C 311.833,453.667 317.167,453.667 322.5,453C 330.252,446.904 338.252,441.237 346.5,436C 353.794,430.888 358.461,424.054 360.5,415.5C 357.22,400.326 354.386,384.992 352,369.5C 351.5,365.5 351,361.5 350.5,357.5C 350.307,353.355 352.307,351.022 356.5,350.5C 369.254,354.13 380.088,360.797 389,370.5C 409.082,395.302 415.415,423.302 408,454.5C 405.373,460.975 403.04,467.642 401,474.5C 396.346,479.138 392.679,484.471 390,490.5C 387.92,492.123 385.754,493.623 383.5,495C 376.039,502.627 368.373,510.127 360.5,517.5C 357.538,522.768 355.705,528.434 355,534.5C 354.504,555.845 354.504,577.179 355,598.5C 353.989,597.663 352.822,597.33 351.5,597.5 Z M 397.5,390.5 C 397.013,389.527 396.513,388.527 396,387.5C 395.275,389.157 395.775,390.157 397.5,390.5 Z M 349.5,533.5 C 349.369,534.376 349.702,535.043 350.5,535.5C 351.67,534.306 351.337,533.639 349.5,533.5 Z"/></g>
<g><path style="opacity:0.004" fill="#fefffe" d="M 361.5,359.5 C 362.833,360.167 362.833,360.167 361.5,359.5 Z"/></g>
<g><path style="opacity:0.004" fill="#fefffe" d="M 366.5,359.5 C 367.833,360.167 367.833,360.167 366.5,359.5 Z"/></g>
<g><path style="opacity:0.004" fill="#fefffe" d="M 119.5,360.5 C 120.833,361.167 120.833,361.167 119.5,360.5 Z"/></g>
<g><path style="opacity:0.005" fill="#fefffe" d="M 368.5,363.5 C 369.978,363.238 371.311,363.571 372.5,364.5C 370.926,365.631 369.259,365.798 367.5,365C 368.056,364.617 368.389,364.117 368.5,363.5 Z"/></g>
<g><path style="opacity:0.004" fill="#fefffe" d="M 375.5,365.5 C 376.833,366.167 376.833,366.167 375.5,365.5 Z"/></g>
<g><path style="opacity:0.004" fill="#fefffe" d="M 381.5,369.5 C 380.833,370.167 380.833,370.167 381.5,369.5 Z"/></g>
<g><path style="opacity:0.004" fill="#fefffe" d="M 361.5,374.5 C 362.525,374.897 362.692,375.563 362,376.5C 361.536,375.906 361.369,375.239 361.5,374.5 Z"/></g>
<g><path style="opacity:0.659" fill="#95a1ae" d="M 123.5,352.5 C 124.649,352.791 125.316,353.624 125.5,355C 121.074,379.984 118.24,405.151 117,430.5C 114.068,444.353 112.234,458.353 111.5,472.5C 110.5,472.5 109.5,472.5 108.5,472.5C 108.066,485.872 106.899,499.205 105,512.5C 104.667,512.833 104.333,513.167 104,513.5C 103.722,512.584 103.222,511.918 102.5,511.5C 103.878,501.987 104.878,492.32 105.5,482.5C 105.333,480.5 105.167,478.5 105,476.5C 104.5,476 104,475.5 103.5,475C 105.061,474.682 106.228,473.849 107,472.5C 107.197,465.216 108.03,458.05 109.5,451C 109.333,449.167 109.167,447.333 109,445.5C 108.667,445.833 108.333,446.167 108,446.5C 107.727,444.899 107.227,443.399 106.5,442C 108,439.833 109.167,440 110,442.5C 112.869,418.599 116.035,394.766 119.5,371C 118.728,369.779 117.728,368.779 116.5,368C 118.333,366.833 119.833,365.333 121,363.5C 121.419,359.608 122.252,355.942 123.5,352.5 Z"/></g>
<g><path style="opacity:0.004" fill="#fefffe" d="M 749.5,377.5 C 750.675,377.281 751.675,377.614 752.5,378.5C 750.948,379.798 749.948,379.465 749.5,377.5 Z"/></g>
<g><path style="opacity:0.004" fill="#fefffe" d="M 360.5,384.5 C 361.833,385.167 361.833,385.167 360.5,384.5 Z"/></g>
<g><path style="opacity:0.97" fill="#b4bfc9" d="M 621.5,349.5 C 620.5,349.5 619.5,349.5 618.5,349.5C 618.5,351.167 618.5,352.833 618.5,354.5C 614.818,354.665 611.152,354.499 607.5,354C 606.167,352.667 606.167,351.333 607.5,350C 605.833,349.333 604.167,349.333 602.5,350C 606.35,351.138 606.35,352.304 602.5,353.5C 598.032,352.043 593.699,352.376 589.5,354.5C 588.167,353.833 586.833,353.167 585.5,352.5C 581.272,355.938 579.272,354.938 579.5,349.5C 578.167,349.5 576.833,349.5 575.5,349.5C 575.5,351.167 575.5,352.833 575.5,354.5C 574.127,354.657 572.793,354.49 571.5,354C 572.416,353.722 573.082,353.222 573.5,352.5C 572.5,352.5 571.5,352.5 570.5,352.5C 568.326,356.142 566.993,360.142 566.5,364.5C 565.835,362.631 565.169,360.631 564.5,358.5C 563.334,378.492 563.167,398.492 564,418.5C 564.671,419.252 565.504,419.586 566.5,419.5C 566.995,421.482 567.495,423.482 568,425.5C 568.333,424.5 568.667,423.5 569,422.5C 573.794,424.687 578.794,426.353 584,427.5C 594.364,426.918 604.864,426.418 615.5,426C 616.308,425.692 616.975,425.192 617.5,424.5C 616.738,424.089 615.738,423.923 614.5,424C 615.211,422.745 616.044,421.579 617,420.5C 617.414,420.957 617.914,421.291 618.5,421.5C 621.136,418.181 624.469,415.848 628.5,414.5C 634.201,415.871 639.201,418.538 643.5,422.5C 645.727,421.737 647.06,422.737 647.5,425.5C 646.833,425.5 646.167,425.5 645.5,425.5C 648.014,428.53 650.014,431.863 651.5,435.5C 650.85,435.804 650.183,436.137 649.5,436.5C 645.935,431.286 641.935,426.453 637.5,422C 633.382,419.609 629.048,419.109 624.5,420.5C 621.832,423.576 619.165,426.576 616.5,429.5C 600.844,430.666 585.177,430.833 569.5,430C 566.509,427.431 564.343,424.265 563,420.5C 562.333,399.167 562.333,377.833 563,356.5C 565.606,352.221 569.106,349.055 573.5,347C 587.833,346.333 602.167,346.333 616.5,347C 618.175,347.985 619.842,348.819 621.5,349.5 Z M 591.5,350.5 C 592.363,351.463 593.03,351.463 593.5,350.5C 592.743,349.227 592.077,349.227 591.5,350.5 Z M 569.5,424.5 C 569.791,425.649 570.624,426.316 572,426.5C 572.833,426.333 573.667,426.167 574.5,426C 572.975,424.991 571.308,424.491 569.5,424.5 Z"/></g>
<g><path style="opacity:0.004" fill="#fefffe" d="M 255.5,407.5 C 258.244,408.072 259.077,409.738 258,412.5C 256.601,411.773 255.101,411.273 253.5,411C 254.823,410.184 255.489,409.017 255.5,407.5 Z"/></g>
<g><path style="opacity:0.004" fill="#fefffe" d="M 778.5,407.5 C 780.975,407.747 780.975,408.413 778.5,409.5C 777.537,409.03 777.537,408.363 778.5,407.5 Z"/></g>
<g><path style="opacity:0.318" fill="#5e7388" d="M 566.5,364.5 C 566.5,382.833 566.5,401.167 566.5,419.5C 565.504,419.586 564.671,419.252 564,418.5C 563.167,398.492 563.334,378.492 564.5,358.5C 565.169,360.631 565.835,362.631 566.5,364.5 Z"/></g>
<g><path style="opacity:0.006" fill="#fefffc" d="M 405.5,411.5 C 405.433,412.959 405.766,414.292 406.5,415.5C 405.203,419.094 405.203,422.094 406.5,424.5C 407.807,426.223 407.807,428.057 406.5,430C 409.018,431.14 409.018,432.306 406.5,433.5C 405.167,433.833 405.167,434.167 406.5,434.5C 407.833,436.5 407.833,438.5 406.5,440.5C 406.649,439.448 406.483,438.448 406,437.5C 405.667,439.833 405.333,442.167 405,444.5C 404.5,443.5 404,442.5 403.5,441.5C 404.282,435.038 404.615,428.705 404.5,422.5C 402.364,418.129 402.198,413.795 404,409.5C 404.278,410.416 404.778,411.082 405.5,411.5 Z"/></g>
<g><path style="opacity:0.004" fill="#fefffe" d="M 624.5,409.5 C 626.337,409.639 626.67,410.306 625.5,411.5C 624.702,411.043 624.369,410.376 624.5,409.5 Z"/></g>
<g><path style="opacity:0.004" fill="#fefffe" d="M 629.5,409.5 C 630.643,409.908 631.643,410.575 632.5,411.5C 630.604,412.639 629.604,411.973 629.5,409.5 Z"/></g>
<g><path style="opacity:0.004" fill="#fefffe" d="M 225.5,412.5 C 226.573,413.251 226.74,414.251 226,415.5C 225.517,414.552 225.351,413.552 225.5,412.5 Z"/></g>
<g><path style="opacity:0.004" fill="#fefffe" d="M 883.5,412.5 C 884.525,412.897 884.692,413.563 884,414.5C 883.536,413.906 883.369,413.239 883.5,412.5 Z"/></g>
<g><path style="opacity:0.004" fill="#fefffe" d="M 110.5,415.5 C 111.622,417.288 111.789,419.288 111,421.5C 110.505,419.527 110.338,417.527 110.5,415.5 Z"/></g>
<g><path style="opacity:0.004" fill="#fefffe" d="M 258.5,418.5 C 259.573,419.251 259.74,420.251 259,421.5C 258.517,420.552 258.351,419.552 258.5,418.5 Z"/></g>
<g><path style="opacity:0.157" fill="#a8b2be" d="M 513.5,548.5 C 513.667,515.498 513.5,482.498 513,449.5C 511.991,447.975 511.491,446.308 511.5,444.5C 513.301,442.413 513.635,440.079 512.5,437.5C 513.588,433.614 514.421,433.614 515,437.5C 516.969,434.801 518.136,431.801 518.5,428.5C 516.738,428.357 515.071,428.691 513.5,429.5C 511.199,428.731 511.033,427.731 513,426.5C 514,426.833 515,427.167 516,427.5C 517.602,422.069 518.935,421.735 520,426.5C 519.479,422.56 518.979,418.56 518.5,414.5C 519.5,414.5 520.5,414.5 521.5,414.5C 521.34,416.199 521.506,417.866 522,419.5C 523.123,415.849 521.956,413.349 518.5,412C 519.428,411.612 520.095,410.945 520.5,410C 519.493,408.48 518.827,406.813 518.5,405C 518.801,400.553 519.301,400.719 520,405.5C 520.667,399.167 520.667,392.833 520,386.5C 518.267,385.167 516.767,383.667 515.5,382C 516.01,380.174 516.844,380.007 518,381.5C 518.598,373.469 518.265,365.469 517,357.5C 517.54,368.909 515.707,369.409 511.5,359C 511.859,356.704 512.859,354.871 514.5,353.5C 512.183,351.264 509.516,350.931 506.5,352.5C 499.329,349.075 491.996,348.742 484.5,351.5C 484.804,352.15 485.137,352.817 485.5,353.5C 483.326,354.893 481.493,354.56 480,352.5C 479.51,353.793 479.343,355.127 479.5,356.5C 478.848,357.449 478.514,358.615 478.5,360C 479.336,362.49 480.002,364.99 480.5,367.5C 479.178,367.33 478.011,367.663 477,368.5C 475.05,383.263 473.217,398.096 471.5,413C 471.261,416.472 471.927,419.639 473.5,422.5C 473.5,423.833 473.5,425.167 473.5,426.5C 472.167,426.5 470.833,426.5 469.5,426.5C 468.51,418.523 468.343,410.523 469,402.5C 472.17,385.306 474.504,367.973 476,350.5C 477.214,348.951 478.714,347.785 480.5,347C 491.5,346.333 502.5,346.333 513.5,347C 517.376,348.043 519.709,350.543 520.5,354.5C 522.676,373.606 524.343,392.773 525.5,412C 525.506,417.222 525.006,422.389 524,427.5C 519.928,433.647 516.928,440.314 515,447.5C 514.832,481.336 514.332,515.002 513.5,548.5 Z"/></g>
<g><path style="opacity:0.004" fill="#fefffe" d="M 515.5,372.5 C 518.001,372.511 518.168,373.178 516,374.5C 515.536,373.906 515.369,373.239 515.5,372.5 Z"/></g>
<g><path style="opacity:0.004" fill="#fefffe" d="M 479.5,359.5 C 481.332,360.14 481.665,361.14 480.5,362.5C 479.614,361.675 479.281,360.675 479.5,359.5 Z"/></g>
<g><path style="opacity:0.005" fill="#fefffe" d="M 479.5,356.5 C 483.058,355.129 483.392,355.796 480.5,358.5C 479.702,358.043 479.369,357.376 479.5,356.5 Z"/></g>
<g><path style="opacity:0.004" fill="#fefffe" d="M 224.5,420.5 C 225.833,421.167 225.833,421.167 224.5,420.5 Z"/></g>
<g><path style="opacity:0.004" fill="#fefffe" d="M 582.5,421.5 C 584.337,421.639 584.67,422.306 583.5,423.5C 582.702,423.043 582.369,422.376 582.5,421.5 Z"/></g>
<g><path style="opacity:0.004" fill="#fefffe" d="M 610.5,424.5 C 605.919,425.236 605.586,424.236 609.5,421.5C 610.386,422.325 610.719,423.325 610.5,424.5 Z"/></g>
<g><path style="opacity:0.004" fill="#fefffe" d="M 253.5,423.5 C 254.833,424.167 254.833,424.167 253.5,423.5 Z"/></g>
<g><path style="opacity:0.004" fill="#fefffe" d="M 596.5,423.5 C 597.978,423.238 599.311,423.571 600.5,424.5C 599.833,424.833 599.167,425.167 598.5,425.5C 597.287,425.253 596.62,424.586 596.5,423.5 Z"/></g>
<g><path style="opacity:0.004" fill="#fefffe" d="M 887.5,423.5 C 888.833,424.167 888.833,424.167 887.5,423.5 Z"/></g>
<g><path style="opacity:0.004" fill="#fefffe" d="M 254.5,426.5 C 255.525,426.897 255.692,427.563 255,428.5C 254.536,427.906 254.369,427.239 254.5,426.5 Z"/></g>
<g><path style="opacity:0.31" fill="#9aa6b3" d="M 284.5,448.5 C 282.035,447.535 279.535,446.535 277,445.5C 275.989,445.892 275.489,446.559 275.5,447.5C 274.252,446.96 273.085,446.293 272,445.5C 272.379,443.925 272.212,442.425 271.5,441C 270.256,440.544 269.423,441.044 269,442.5C 268.667,442.167 268.333,441.833 268,441.5C 267.334,437.834 266.167,434.334 264.5,431C 262.694,430.778 261.027,429.944 259.5,428.5C 260.447,426.941 261.113,425.274 261.5,423.5C 260.421,417.203 259.588,410.87 259,404.5C 257.989,405.337 256.822,405.67 255.5,405.5C 255.579,404.07 255.246,402.736 254.5,401.5C 255.167,400.833 255.833,400.167 256.5,399.5C 255.5,398.667 254.5,397.833 253.5,397C 254.573,395.75 254.573,394.416 253.5,393C 253.667,392.5 253.833,392 254,391.5C 254.915,392.328 255.581,393.328 256,394.5C 255.801,386.816 254.967,379.149 253.5,371.5C 252.549,370.674 251.549,370.508 250.5,371C 248.999,372.252 247.332,373.252 245.5,374C 247.929,374.451 248.096,375.285 246,376.5C 243.755,375.205 242.255,375.872 241.5,378.5C 239.441,379.986 238.775,381.82 239.5,384C 238.551,384.617 237.718,384.451 237,383.5C 236.153,385.193 235.32,386.86 234.5,388.5C 231.933,392.19 229.933,396.19 228.5,400.5C 226.876,402.137 225.876,401.803 225.5,399.5C 227.819,393.373 230.319,387.373 233,381.5C 237.175,376.624 241.675,372.124 246.5,368C 250.317,366.977 253.817,367.477 257,369.5C 260.141,383.348 262.308,397.348 263.5,411.5C 265.495,418.107 267.328,424.774 269,431.5C 271.692,434.692 274.192,438.025 276.5,441.5C 280.216,442.439 283.549,444.105 286.5,446.5C 286.145,447.522 285.478,448.189 284.5,448.5 Z"/></g>
<g><path style="opacity:0.004" fill="#fefffe" d="M 235.5,391.5 C 236.833,392.167 236.833,392.167 235.5,391.5 Z"/></g>
<g><path style="opacity:0.004" fill="#fefffe" d="M 238.5,388.5 C 240.332,389.14 240.665,390.14 239.5,391.5C 238.614,390.675 238.281,389.675 238.5,388.5 Z"/></g>
<g><path style="opacity:0.004" fill="#000000" d="M 234.5,388.5 C 235.833,389.167 235.833,389.167 234.5,388.5 Z"/></g>
<g><path style="opacity:0.007" fill="#fefffe" d="M 253.5,382.5 C 254.629,384.628 254.796,386.961 254,389.5C 253.503,387.19 253.337,384.857 253.5,382.5 Z"/></g>
<g><path style="opacity:0.004" fill="#fefffe" d="M 241.5,378.5 C 242.525,378.897 242.692,379.563 242,380.5C 241.536,379.906 241.369,379.239 241.5,378.5 Z"/></g>
<g><path style="opacity:0.004" fill="#fefffe" d="M 247.5,377.5 C 248.833,378.167 248.833,378.167 247.5,377.5 Z"/></g>
<g><path style="opacity:0.004" fill="#fefffe" d="M 483.5,427.5 C 485.625,428.368 485.791,429.368 484,430.5C 482.317,429.824 482.15,428.824 483.5,427.5 Z"/></g>
<g><path style="opacity:0.004" fill="#fefffe" d="M 886.5,428.5 C 887.833,429.167 887.833,429.167 886.5,428.5 Z"/></g>
<g><path style="opacity:0.004" fill="#fefffe" d="M 109.5,430.5 C 110.833,431.167 110.833,431.167 109.5,430.5 Z"/></g>
<g><path style="opacity:0.004" fill="#fefffe" d="M 480.5,431.5 C 481.283,433.343 481.95,435.343 482.5,437.5C 482.167,437.833 481.833,438.167 481.5,438.5C 479.636,436.288 479.303,433.955 480.5,431.5 Z"/></g>
<g><path style="opacity:0.004" fill="#fefffe" d="M 222.5,432.5 C 223.267,433.172 223.934,434.005 224.5,435C 222.939,435.188 222.272,434.355 222.5,432.5 Z"/></g>
<g><path style="opacity:0.004" fill="#fefffe" d="M 886.5,432.5 C 887.833,433.167 887.833,433.167 886.5,432.5 Z"/></g>
<g><path style="opacity:0.004" fill="#fefffe" d="M 706.5,434.5 C 707.776,435.386 707.776,436.386 706.5,437.5C 705.438,436.575 705.438,435.575 706.5,434.5 Z"/></g>
<g><path style="opacity:0.004" fill="#fefffe" d="M 886.5,434.5 C 887.525,434.897 887.692,435.563 887,436.5C 886.536,435.906 886.369,435.239 886.5,434.5 Z"/></g>
<g><path style="opacity:0.004" fill="#fefffe" d="M 104.5,438.5 C 104.897,437.475 105.563,437.308 106.5,438C 105.906,438.464 105.239,438.631 104.5,438.5 Z"/></g>
<g><path style="opacity:0.004" fill="#fefffe" d="M 108.5,437.5 C 109.833,438.167 109.833,438.167 108.5,437.5 Z"/></g>
<g><path style="opacity:0.004" fill="#fefffe" d="M 887.5,437.5 C 888.833,438.167 888.833,438.167 887.5,437.5 Z"/></g>
<g><path style="opacity:0.004" fill="#fefffe" d="M 702.5,444.5 C 703.386,443.224 704.386,443.224 705.5,444.5C 704.575,445.562 703.575,445.562 702.5,444.5 Z"/></g>
<g><path style="opacity:0.004" fill="#fefffe" d="M 403.5,447.5 C 404.613,448.946 404.78,450.613 404,452.5C 403.506,450.866 403.34,449.199 403.5,447.5 Z"/></g>
<g><path style="opacity:0.004" fill="#fefffe" d="M 105.5,448.5 C 108.957,448.667 109.29,449.667 106.5,451.5C 105.614,450.675 105.281,449.675 105.5,448.5 Z"/></g>
<g><path style="opacity:0.004" fill="#fefffe" d="M 224.5,448.5 C 225.573,449.251 225.74,450.251 225,451.5C 224.517,450.552 224.351,449.552 224.5,448.5 Z"/></g>
<g><path style="opacity:0.835" fill="#9eaab7" d="M 706.5,444.5 C 708.76,439.792 709.926,434.792 710,429.5C 709.346,430.696 708.846,430.696 708.5,429.5C 710.167,428.833 711.833,428.167 713.5,427.5C 716.08,421.927 719.747,417.26 724.5,413.5C 728.5,413.167 728.5,412.833 724.5,412.5C 725.585,410.418 727.085,410.084 729,411.5C 731.596,409.98 734.429,409.147 737.5,409C 746.553,408.154 755.553,408.487 764.5,410C 767.425,412.453 770.758,413.953 774.5,414.5C 774.369,415.376 774.702,416.043 775.5,416.5C 776.891,415.355 778.224,415.355 779.5,416.5C 778.975,417.192 778.308,417.692 777.5,418C 781.492,420.992 785.158,424.326 788.5,428C 789.784,428.684 790.951,428.517 792,427.5C 794.096,428.715 793.929,429.549 791.5,430C 794.87,433.035 797.87,436.368 800.5,440C 802.76,441.689 805.26,442.856 808,443.5C 808.528,444.816 808.028,445.483 806.5,445.5C 807.122,446.627 807.955,447.627 809,448.5C 810.079,446.606 811.413,446.273 813,447.5C 812.755,444.089 812.255,440.922 811.5,438C 812.744,437.544 813.577,438.044 814,439.5C 814.847,436.51 813.68,435.176 810.5,435.5C 810.519,433.94 810.852,432.44 811.5,431C 809.684,427.176 807.851,423.343 806,419.5C 805.667,419.833 805.333,420.167 805,420.5C 804.89,417.354 803.557,416.354 801,417.5C 797.761,415.69 796.928,413.19 798.5,410C 796.591,406.739 794.258,403.906 791.5,401.5C 788.905,401.96 787.238,400.626 786.5,397.5C 786.833,397.5 787.167,397.5 787.5,397.5C 785.418,395.231 783.418,392.731 781.5,390C 779.266,388.25 776.932,386.75 774.5,385.5C 774.167,384.167 773.833,384.167 773.5,385.5C 769.623,385.517 768.957,384.351 771.5,382C 770.371,379.832 768.871,379.332 767,380.5C 766.173,377.584 764.506,376.917 762,378.5C 759.529,376.191 756.696,374.524 753.5,373.5C 753.957,372.702 754.624,372.369 755.5,372.5C 751.794,369.244 747.46,366.911 742.5,365.5C 741.749,366.376 741.249,367.376 741,368.5C 739.601,367.773 738.101,367.273 736.5,367C 736.043,366.586 735.709,366.086 735.5,365.5C 736.729,364.719 738.062,364.219 739.5,364C 736.874,363.005 734.207,362.672 731.5,363C 732.5,363.333 733.5,363.667 734.5,364C 733.034,364.635 731.7,365.469 730.5,366.5C 729.671,364.797 729.004,362.964 728.5,361C 727.258,360.689 726.258,361.189 725.5,362.5C 722.972,361.502 722.972,360.669 725.5,360C 723.386,358.482 721.053,358.149 718.5,359C 719.833,359.333 721.167,359.667 722.5,360C 721.91,361.509 721.244,363.009 720.5,364.5C 719.614,363.675 719.281,362.675 719.5,361.5C 717.692,361.509 716.025,361.009 714.5,360C 713.366,358.984 713.699,358.317 715.5,358C 712.367,358.046 709.7,357.046 707.5,355C 687.193,353.465 666.859,353.131 646.5,354C 645.364,355.145 644.364,356.312 643.5,357.5C 642.662,357.842 642.328,358.508 642.5,359.5C 642.167,359.5 641.833,359.5 641.5,359.5C 640.9,360.9 639.9,361.9 638.5,362.5C 638.167,362.5 637.833,362.5 637.5,362.5C 634.833,362.5 632.167,362.5 629.5,362.5C 628.5,362.5 627.5,362.5 626.5,362.5C 626.953,363.458 627.619,364.292 628.5,365C 625.881,364.917 623.214,364.75 620.5,364.5C 620.16,361.856 620.827,359.523 622.5,357.5C 621.985,355.775 621.318,354.108 620.5,352.5C 619.818,353.243 619.151,353.909 618.5,354.5C 618.5,352.833 618.5,351.167 618.5,349.5C 619.5,349.5 620.5,349.5 621.5,349.5C 622.496,349.414 623.329,349.748 624,350.5C 624.113,356.114 626.946,358.781 632.5,358.5C 634.167,358.333 635.833,358.167 637.5,358C 640.069,355.521 642.402,352.854 644.5,350C 649.92,348.909 655.42,348.409 661,348.5C 674.833,349.012 688.666,349.512 702.5,350C 717.029,353.727 731.363,357.727 745.5,362C 751.287,365.581 757.287,368.748 763.5,371.5C 768.73,375.436 774.064,379.269 779.5,383C 784.606,388.028 789.606,393.195 794.5,398.5C 800.192,405.692 805.692,413.025 811,420.5C 814.188,426.393 817.188,432.393 820,438.5C 822.01,443.994 821.843,449.327 819.5,454.5C 816.554,455.655 813.554,455.821 810.5,455C 797.582,440.059 783.249,426.726 767.5,415C 737.643,404.624 718.476,414.457 710,444.5C 709.014,445.171 707.847,445.171 706.5,444.5 Z M 812.5,448.5 C 812.082,449.222 811.416,449.722 810.5,450C 811.872,450.402 813.205,450.902 814.5,451.5C 818.386,448.907 817.719,447.907 812.5,448.5 Z M 801.5,414.5 C 801.631,413.624 801.298,412.957 800.5,412.5C 799.33,413.694 799.663,414.361 801.5,414.5 Z M 625.5,361.5 C 625.217,360.711 624.717,360.044 624,359.5C 623.472,360.816 623.972,361.483 625.5,361.5 Z"/></g>
<g><path style="opacity:0.004" fill="#fefffe" d="M 807.5,434.5 C 809.465,434.948 809.798,435.948 808.5,437.5C 807.614,436.675 807.281,435.675 807.5,434.5 Z"/></g>
<g><path style="opacity:0.004" fill="#fefffe" d="M 800.5,418.5 C 803.797,418.329 804.131,418.995 801.5,420.5C 800.702,420.043 800.369,419.376 800.5,418.5 Z"/></g>
<g><path style="opacity:0.004" fill="#fefffe" d="M 299.5,455.5 C 299.166,458.275 297.833,458.941 295.5,457.5C 296.577,456.295 297.91,455.628 299.5,455.5 Z"/></g>
<g><path style="opacity:0.004" fill="#fefffe" d="M 288.5,459.5 C 289.833,460.167 289.833,460.167 288.5,459.5 Z"/></g>
<g><path style="opacity:0.004" fill="#fefffe" d="M 304.5,460.5 C 303.833,459.167 303.833,459.167 304.5,460.5 Z"/></g>
<g><path style="opacity:0.533" fill="#aab7c0" d="M 651.5,436.5 C 652.117,436.611 652.617,436.944 653,437.5C 653.93,442.799 654.597,448.133 655,453.5C 655.022,448.956 657.188,447.456 661.5,449C 659.842,449.725 659.342,450.892 660,452.5C 660.667,451.167 661.333,451.167 662,452.5C 662.49,453.793 662.657,455.127 662.5,456.5C 665.144,456.84 667.477,456.173 669.5,454.5C 676.178,456.621 682.845,456.288 689.5,453.5C 690.604,454.631 690.271,455.465 688.5,456C 693.167,456.667 697.833,456.667 702.5,456C 701.185,454.605 701.519,453.605 703.5,453C 702.446,451.612 702.28,450.112 703,448.5C 704.596,449.048 705.763,448.382 706.5,446.5C 707.222,446.918 707.722,447.584 708,448.5C 708.667,451.833 708.667,455.167 708,458.5C 706.933,459.191 705.766,459.691 704.5,460C 687.5,460.667 670.5,460.667 653.5,460C 652.874,459.25 652.374,458.416 652,457.5C 651.713,451.976 651.213,446.476 650.5,441C 650.773,439.467 651.106,437.967 651.5,436.5 Z"/></g>
<g><path style="opacity:0.004" fill="#fefffe" d="M 692.5,453.5 C 694.337,453.639 694.67,454.306 693.5,455.5C 692.702,455.043 692.369,454.376 692.5,453.5 Z"/></g>
<g><path style="opacity:0.004" fill="#fefffe" d="M 304.5,460.5 C 306.337,460.639 306.67,461.306 305.5,462.5C 304.702,462.043 304.369,461.376 304.5,460.5 Z"/></g>
<g><path style="opacity:0.004" fill="#fefffe" d="M 308.5,461.5 C 309.833,462.167 309.833,462.167 308.5,461.5 Z"/></g>
<g><path style="opacity:0.004" fill="#fefffe" d="M 890.5,461.5 C 891.833,462.167 891.833,462.167 890.5,461.5 Z"/></g>
<g><path style="opacity:0.004" fill="#fefffe" d="M 399.5,465.5 C 396.999,465.489 396.832,464.822 399,463.5C 399.464,464.094 399.631,464.761 399.5,465.5 Z"/></g>
<g><path style="opacity:0.004" fill="#fefffe" d="M 229.5,465.5 C 230.077,464.227 230.743,464.227 231.5,465.5C 231.03,466.463 230.363,466.463 229.5,465.5 Z"/></g>
<g><path style="opacity:0.004" fill="#fefffe" d="M 390.5,467.5 C 391.525,467.897 391.692,468.563 391,469.5C 390.536,468.906 390.369,468.239 390.5,467.5 Z"/></g>
<g><path style="opacity:0.004" fill="#fefffe" d="M 390.5,475.5 C 392.225,475.843 392.725,476.843 392,478.5C 390.961,477.756 390.461,476.756 390.5,475.5 Z"/></g>
<g><path style="opacity:0.004" fill="#fefffe" d="M 235.5,478.5 C 236.077,477.227 236.743,477.227 237.5,478.5C 238.988,480.886 238.655,481.552 236.5,480.5C 236.672,479.508 236.338,478.842 235.5,478.5 Z"/></g>
<g><path style="opacity:0.914" fill="#96a4b1" d="M 794.5,284.5 C 798.794,284.577 802.961,285.244 807,286.5C 809.115,283.682 810.948,283.849 812.5,287C 811.833,287.667 811.167,288.333 810.5,289C 815.181,290.344 819.847,291.677 824.5,293C 823.5,293.333 822.5,293.667 821.5,294C 824.548,294.606 827.048,296.106 829,298.5C 829.333,298.167 829.667,297.833 830,297.5C 830.79,299.79 832.124,300.123 834,298.5C 839.724,299.266 839.891,300.433 834.5,302C 840.02,306.03 845.353,310.197 850.5,314.5C 849.167,314.833 849.167,315.167 850.5,315.5C 853.477,319.148 856.477,322.814 859.5,326.5C 861.566,325.39 862.399,326.056 862,328.5C 861.346,327.304 860.846,327.304 860.5,328.5C 863.673,332.007 866.006,336.007 867.5,340.5C 870.601,339.097 871.767,340.097 871,343.5C 870.111,342.112 869.611,342.278 869.5,344C 870.209,346.629 871.209,349.129 872.5,351.5C 874.664,351.998 876.331,353.164 877.5,355C 876.464,356.776 876.464,358.609 877.5,360.5C 881.457,363.537 881.457,366.704 877.5,370C 878.308,370.308 878.975,370.808 879.5,371.5C 878.456,372.623 877.79,373.956 877.5,375.5C 879.453,386.034 880.62,396.701 881,407.5C 881.448,409.224 882.282,409.891 883.5,409.5C 882.4,413.442 882.233,417.442 883,421.5C 884.273,427.695 885.273,434.028 886,440.5C 886.278,439.584 886.778,438.918 887.5,438.5C 886.588,442.131 886.421,445.797 887,449.5C 887.219,448.062 887.719,446.729 888.5,445.5C 889.292,447.465 889.959,449.465 890.5,451.5C 891.025,452.192 891.692,452.692 892.5,453C 890.888,453.72 889.388,453.554 888,452.5C 887.034,456.118 887.534,459.451 889.5,462.5C 889.069,463.293 888.735,464.127 888.5,465C 889.035,469.91 889.869,474.743 891,479.5C 892.465,477.214 893.299,477.714 893.5,481C 893.156,482.365 892.489,483.532 891.5,484.5C 894.023,486.255 894.023,488.089 891.5,490C 892.391,500.221 893.391,510.388 894.5,520.5C 893.603,521.598 892.77,521.598 892,520.5C 885.664,467.005 878.997,413.672 872,360.5C 869.408,355.816 867.575,350.816 866.5,345.5C 861.93,337.391 857.096,329.391 852,321.5C 847.733,316.559 842.9,312.392 837.5,309C 828.844,302.002 819.511,296.002 809.5,291C 804.009,290.125 798.676,288.958 793.5,287.5C 794.11,286.609 794.443,285.609 794.5,284.5 Z M 875.5,359.5 C 876.167,359.833 876.833,360.167 877.5,360.5C 876.649,363.111 876.482,365.777 877,368.5C 875.711,365.649 875.211,362.649 875.5,359.5 Z"/></g>
<g><path style="opacity:0.004" fill="#fefffe" d="M 377.5,489.5 C 378.833,490.167 378.833,490.167 377.5,489.5 Z"/></g>
<g><path style="opacity:0.455" fill="#acb9c4" d="M 474.5,427.5 C 476.855,433.045 479.688,438.379 483,443.5C 483.333,445.833 483.667,448.167 484,450.5C 484.171,482.072 484.671,513.572 485.5,545C 484.748,545.671 484.414,546.504 484.5,547.5C 483.596,548.209 483.263,549.209 483.5,550.5C 492.5,550.5 501.5,550.5 510.5,550.5C 501.098,551.828 491.598,551.828 482,550.5C 480.873,514.862 480.04,479.195 479.5,443.5C 476.5,440.166 474,436.499 472,432.5C 470.923,429.738 471.756,428.072 474.5,427.5 Z"/></g>
<g><path style="opacity:0.004" fill="#fefffe" d="M 262.5,504.5 C 263.833,505.167 263.833,505.167 262.5,504.5 Z"/></g>
<g><path style="opacity:0.004" fill="#fefffe" d="M 349.5,517.5 C 350.776,518.386 350.776,519.386 349.5,520.5C 348.438,519.575 348.438,518.575 349.5,517.5 Z"/></g>
<g><path style="opacity:0.8" fill="#636f7f" d="M 511.5,444.5 C 511.491,446.308 511.991,447.975 513,449.5C 513.5,482.498 513.667,515.498 513.5,548.5C 512.71,549.401 511.71,550.068 510.5,550.5C 501.5,550.5 492.5,550.5 483.5,550.5C 483.263,549.209 483.596,548.209 484.5,547.5C 485.5,547.5 486.5,547.5 487.5,547.5C 489.5,547.5 491.5,547.5 493.5,547.5C 499.176,547.666 504.843,547.499 510.5,547C 506.313,546.929 502.313,546.262 498.5,545C 499,544.5 499.5,544 500,543.5C 503.112,544.573 506.279,544.573 509.5,543.5C 509.333,512.498 509.5,481.498 510,450.5C 510.103,447.681 510.603,445.681 511.5,444.5 Z"/></g>
<g><path style="opacity:0.004" fill="#fefffe" d="M 353.5,521.5 C 352.833,520.167 352.833,520.167 353.5,521.5 Z"/></g>
<g><path style="opacity:0.486" fill="#96acb8" d="M 904.5,593.5 C 904.511,595.547 904.844,597.547 905.5,599.5C 905.471,601.029 904.804,602.196 903.5,603C 840.833,603.333 778.167,603.667 715.5,604C 714.584,604.374 713.75,604.874 713,605.5C 712.581,604.328 711.915,603.328 711,602.5C 710.196,582.171 709.53,561.838 709,541.5C 708.29,540.027 707.124,539.36 705.5,539.5C 705.351,538.448 705.517,537.448 706,536.5C 706.914,537.654 707.747,537.487 708.5,536C 707.552,535.517 706.552,535.351 705.5,535.5C 705.449,533.43 706.115,531.597 707.5,530C 706.833,529.333 706.167,528.667 705.5,528C 705.905,527.055 706.572,526.388 707.5,526C 705.842,525.275 705.342,524.108 706,522.5C 706.333,522.833 706.667,523.167 707,523.5C 707.934,516.673 707.434,510.006 705.5,503.5C 706.116,502.798 706.116,501.798 705.5,500.5C 705.5,499.5 705.5,498.5 705.5,497.5C 705.5,496.833 705.5,496.167 705.5,495.5C 705.813,491.958 705.479,488.625 704.5,485.5C 704.5,484.833 704.167,484.5 703.5,484.5C 703.167,484.5 702.833,484.5 702.5,484.5C 701.167,484.5 699.833,484.5 698.5,484.5C 695.167,484.5 691.833,484.5 688.5,484.5C 687.5,484.5 686.5,484.5 685.5,484.5C 681.5,484.5 677.5,484.5 673.5,484.5C 672.5,484.5 671.5,484.5 670.5,484.5C 669.833,484.5 669.167,484.5 668.5,484.5C 667.107,485.26 665.607,485.926 664,486.5C 662.674,486.245 661.674,485.578 661,484.5C 660.586,484.957 660.086,485.291 659.5,485.5C 657.901,509.817 657.067,534.15 657,558.5C 657.333,557.5 657.667,556.5 658,555.5C 658.402,556.872 658.902,558.205 659.5,559.5C 658.509,560.665 657.509,561.832 656.5,563C 659.133,566.29 659.133,569.457 656.5,572.5C 656.25,573.922 655.417,574.922 654,575.5C 653.05,544.423 653.884,513.423 656.5,482.5C 664.305,481.169 672.472,480.502 681,480.5C 689.167,480.667 697.333,480.833 705.5,481C 706.646,481.645 707.646,482.478 708.5,483.5C 709.176,491.526 710.01,499.526 711,507.5C 712.034,538.184 713.2,568.851 714.5,599.5C 776.834,599.667 839.168,599.5 901.5,599C 902.113,596.853 902.779,594.686 903.5,592.5C 904.107,592.624 904.44,592.957 904.5,593.5 Z"/></g>
<g><path style="opacity:0.004" fill="#fefffe" d="M 659.5,515.5 C 660.833,516.167 660.833,516.167 659.5,515.5 Z"/></g>
<g><path style="opacity:0.004" fill="#fefffe" d="M 703.5,508.5 C 704.833,509.167 704.833,509.167 703.5,508.5 Z"/></g>
<g><path style="opacity:0.004" fill="#fefffe" d="M 659.5,503.5 C 660.833,504.167 660.833,504.167 659.5,503.5 Z"/></g>
<g><path style="opacity:0.004" fill="#fefffe" d="M 660.5,494.5 C 661.833,495.167 661.833,495.167 660.5,494.5 Z"/></g>
<g><path style="opacity:0.005" fill="#fefffe" d="M 659.5,487.5 C 661.337,487.639 661.67,488.306 660.5,489.5C 659.702,489.043 659.369,488.376 659.5,487.5 Z"/></g>
<g><path style="opacity:0.006" fill="#fefffe" d="M 688.5,484.5 C 691.833,484.5 695.167,484.5 698.5,484.5C 699.833,485.833 701.167,485.833 702.5,484.5C 702.833,484.5 703.167,484.5 703.5,484.5C 704.167,484.5 704.5,484.833 704.5,485.5C 704.187,489.042 704.521,492.375 705.5,495.5C 705.5,496.167 705.5,496.833 705.5,497.5C 704.167,498.5 704.167,499.5 705.5,500.5C 706.116,501.798 706.116,502.798 705.5,503.5C 704.133,504.853 703.133,504.519 702.5,502.5C 702.907,498.078 703.24,493.745 703.5,489.5C 698.793,488.985 694.126,488.152 689.5,487C 688.748,486.329 688.414,485.496 688.5,484.5 Z"/></g>
<g><path style="opacity:0.006" fill="#fefffe" d="M 668.5,484.5 C 669.167,484.5 669.833,484.5 670.5,484.5C 671.5,485.833 672.5,485.833 673.5,484.5C 677.5,484.5 681.5,484.5 685.5,484.5C 687.794,486.041 687.794,487.375 685.5,488.5C 681.683,487.798 677.85,487.131 674,486.5C 671.109,489.146 669.276,488.479 668.5,484.5 Z"/></g>
<g><path style="opacity:0.004" fill="#fefffe" d="M 349.5,525.5 C 350.833,526.167 350.833,526.167 349.5,525.5 Z"/></g>
<g><path style="opacity:0.004" fill="#fefffe" d="M 97.5,526.5 C 98.5983,527.601 98.765,528.934 98,530.5C 97.51,529.207 97.3433,527.873 97.5,526.5 Z"/></g>
<g><path style="opacity:0.004" fill="#fefffe" d="M 702.5,539.5 C 703.833,540.167 703.833,540.167 702.5,539.5 Z"/></g>
<g><path style="opacity:0.004" fill="#fefffe" d="M 657.5,542.5 C 658.675,542.281 659.675,542.614 660.5,543.5C 658.948,544.798 657.948,544.465 657.5,542.5 Z"/></g>
<g><path style="opacity:0.008" fill="#fdfffe" d="M 493.5,547.5 C 491.5,547.5 489.5,547.5 487.5,547.5C 486.402,546.603 486.402,545.77 487.5,545C 491.246,542.787 494.579,543.12 497.5,546C 495.942,546.21 494.609,546.71 493.5,547.5 Z"/></g>
<g><path style="opacity:0.004" fill="#fefffe" d="M 703.5,543.5 C 705.359,543.461 706.692,544.294 707.5,546C 706.207,546.49 704.873,546.657 703.5,546.5C 703.5,545.5 703.5,544.5 703.5,543.5 Z"/></g>
<g><path style="opacity:0.004" fill="#fefffe" d="M 657.5,546.5 C 658.598,547.601 658.765,548.934 658,550.5C 657.51,549.207 657.343,547.873 657.5,546.5 Z"/></g>
<g><path style="opacity:0.004" fill="#fefffe" d="M 706.5,548.5 C 707.773,549.077 707.773,549.743 706.5,550.5C 705.537,550.03 705.537,549.363 706.5,548.5 Z"/></g>
<g><path style="opacity:0.004" fill="#fefffe" d="M 707.5,551.5 C 708.833,552.167 708.833,552.167 707.5,551.5 Z"/></g>
<g><path style="opacity:0.005" fill="#f8fffe" d="M 350.5,554.5 C 351.625,555.652 351.625,556.652 350.5,557.5C 349.167,559.167 349.167,560.833 350.5,562.5C 351.833,563.167 351.833,563.833 350.5,564.5C 349.215,565.52 349.215,567.187 350.5,569.5C 351.301,571.042 351.634,572.708 351.5,574.5C 350.504,574.414 349.671,574.748 349,575.5C 348.813,568.919 348.313,562.419 347.5,556C 348.05,553.842 349.05,553.342 350.5,554.5 Z"/></g>
<g><path style="opacity:0.004" fill="#fefffe" d="M 92.5,557.5 C 93.8333,558.167 93.8333,558.167 92.5,557.5 Z"/></g>
<g><path style="opacity:0.004" fill="#fefffe" d="M 91.5,560.5 C 92.8333,561.167 92.8333,561.167 91.5,560.5 Z"/></g>
<g><path style="opacity:0.004" fill="#fefffe" d="M 707.5,563.5 C 708.613,564.946 708.78,566.613 708,568.5C 707.506,566.866 707.34,565.199 707.5,563.5 Z"/></g>
<g><path style="opacity:0.573" fill="#8f9eaa" d="M 896.5,524.5 C 897.987,542.376 899.987,560.043 902.5,577.5C 902.5,582.167 902.5,586.833 902.5,591.5C 901.5,591.5 900.5,591.5 899.5,591.5C 896.624,571.002 894.624,550.335 893.5,529.5C 893.667,527.5 893.833,525.5 894,523.5C 894.671,524.252 895.504,524.586 896.5,524.5 Z"/></g>
<g><path style="opacity:0.004" fill="#fefffe" d="M 92.5,576.5 C 92.2148,574.712 92.5481,573.045 93.5,571.5C 93.8333,571.667 94.1667,571.833 94.5,572C 93.9011,573.622 93.2344,575.122 92.5,576.5 Z"/></g>
<g><path style="opacity:0.005" fill="#fefffe" d="M 707.5,571.5 C 708.788,573.035 708.788,574.701 707.5,576.5C 706.566,574.905 706.566,573.239 707.5,571.5 Z"/></g>
<g><path style="opacity:0.004" fill="#fefffe" d="M 902.5,571.5 C 903.833,572.167 903.833,572.167 902.5,571.5 Z"/></g>
<g><path style="opacity:0.004" fill="#fefffe" d="M 702.5,572.5 C 703.833,573.167 703.833,573.167 702.5,572.5 Z"/></g>
<g><path style="opacity:0.005" fill="#fefffe" d="M 902.5,577.5 C 902.952,574.326 903.952,573.993 905.5,576.5C 904.867,578.519 903.867,578.853 902.5,577.5 Z"/></g>
<g><path style="opacity:0.004" fill="#fefffe" d="M 92.5,576.5 C 93.4731,578.068 93.6397,579.735 93,581.5C 91.5456,579.756 91.3789,578.089 92.5,576.5 Z"/></g>
<g><path style="opacity:0.004" fill="#fefffe" d="M 707.5,578.5 C 708.573,579.251 708.74,580.251 708,581.5C 707.517,580.552 707.351,579.552 707.5,578.5 Z"/></g>
<g><path style="opacity:0.005" fill="#cafffe" d="M 903.5,579.5 C 905.942,581.139 906.109,583.139 904,585.5C 903.505,583.527 903.338,581.527 903.5,579.5 Z"/></g>
<g><path style="opacity:0.004" fill="#fefffe" d="M 91.5,583.5 C 92.8333,584.167 92.8333,584.167 91.5,583.5 Z"/></g>
<g><path style="opacity:0.004" fill="#fefffe" d="M 348.5,583.5 C 349.833,584.167 349.833,584.167 348.5,583.5 Z"/></g>
<g><path style="opacity:0.004" fill="#fefffe" d="M 91.5,585.5 C 93.6569,586.053 93.4903,587.053 91,588.5C 90.5304,587.423 90.6971,586.423 91.5,585.5 Z"/></g>
<g><path style="opacity:0.004" fill="#fefffe" d="M 707.5,586.5 C 708.833,587.167 708.833,587.167 707.5,586.5 Z"/></g>
<g><path style="opacity:0.004" fill="#fefffe" d="M 903.5,586.5 C 904.833,587.167 904.833,587.167 903.5,586.5 Z"/></g>
<g><path style="opacity:0.004" fill="#fefffe" d="M 904.5,588.5 C 905.833,589.167 905.833,589.167 904.5,588.5 Z"/></g>
<g><path style="opacity:0.004" fill="#fefffe" d="M 656.5,590.5 C 657.833,591.167 657.833,591.167 656.5,590.5 Z"/></g>
<g><path style="opacity:0.004" fill="#fefffe" d="M 656.5,591.5 C 657.75,593.968 657.583,596.301 656,598.5C 655.204,595.961 655.371,593.628 656.5,591.5 Z"/></g>
<g><path style="opacity:0.004" fill="#fefffe" d="M 708.5,592.5 C 709.573,593.251 709.74,594.251 709,595.5C 708.517,594.552 708.351,593.552 708.5,592.5 Z"/></g>
<g><path style="opacity:0.004" fill="#fefffe" d="M 348.5,593.5 C 349.613,594.946 349.78,596.613 349,598.5C 348.506,596.866 348.34,595.199 348.5,593.5 Z"/></g>
<g><path style="opacity:0.004" fill="#fefffe" d="M 527.5,593.5 C 528.833,594.167 528.833,594.167 527.5,593.5 Z"/></g>
<g><path style="opacity:0.616" fill="#b1bdc7" d="M 656.5,482.5 C 653.884,513.423 653.05,544.423 654,575.5C 655.417,574.922 656.25,573.922 656.5,572.5C 657.748,573.334 658.415,574.667 658.5,576.5C 658.351,578.32 657.684,579.82 656.5,581C 657.731,582.183 657.731,583.349 656.5,584.5C 655.914,584.291 655.414,583.957 655,583.5C 654.667,589.833 654.333,596.167 654,602.5C 653.044,603.894 651.711,604.561 650,604.5C 611.185,603.681 572.352,603.181 533.5,603C 531.741,601.992 530.574,600.492 530,598.5C 529.397,601.906 528.231,602.239 526.5,599.5C 528.77,597.025 531.437,595.025 534.5,593.5C 535.429,592.311 535.762,590.978 535.5,589.5C 537.288,589.785 538.955,589.452 540.5,588.5C 540.533,587.011 541.033,585.678 542,584.5C 542.079,586.736 542.579,588.07 543.5,588.5C 544.497,588.47 545.164,588.97 545.5,590C 545.022,591.303 544.355,592.469 543.5,593.5C 539.871,594.137 537.538,596.137 536.5,599.5C 574.833,599.5 613.167,599.5 651.5,599.5C 651.362,560.782 652.529,522.116 655,483.5C 655.383,482.944 655.883,482.611 656.5,482.5 Z"/></g>
<g><path style="opacity:0.004" fill="#fefffe" d="M 708.5,599.5 C 706.834,600.666 705.167,600.666 703.5,599.5C 705.299,598.212 706.965,598.212 708.5,599.5 Z"/></g>
<g><path style="opacity:0.004" fill="#fefffe" d="M 708.5,599.5 C 709.833,600.167 709.833,600.167 708.5,599.5 Z"/></g>
<g><path style="opacity:0.765" fill="#8ea8b5" d="M 226.5,403.5 C 226.296,406.518 225.963,409.518 225.5,412.5C 221.861,422.05 220.694,432.05 222,442.5C 222.993,446.442 223.66,450.442 224,454.5C 225.545,453.179 226.711,453.512 227.5,455.5C 226.585,456.328 225.919,457.328 225.5,458.5C 227.367,464.267 229.534,469.934 232,475.5C 233.039,476.71 234.206,477.71 235.5,478.5C 235.328,479.492 235.662,480.158 236.5,480.5C 238.804,485.308 242.471,488.475 247.5,490C 246.833,490.333 246.167,490.667 245.5,491C 246.893,493.178 248.56,494.178 250.5,494C 249.833,494.333 249.167,494.667 248.5,495C 249.931,495.465 251.097,496.299 252,497.5C 252.333,497.167 252.667,496.833 253,496.5C 253.333,497.5 253.667,498.5 254,499.5C 261.782,504.281 268.282,510.448 273.5,518C 275.432,518.138 277.266,517.638 279,516.5C 279.667,517.5 279.667,518.5 279,519.5C 278.333,520.833 277.667,520.833 277,519.5C 276.934,524.227 278.267,528.56 281,532.5C 281.833,555.84 281.666,579.174 280.5,602.5C 279.833,603.833 279.167,605.167 278.5,606.5C 277.614,605.675 277.281,604.675 277.5,603.5C 216.166,603.667 154.832,603.5 93.5,603C 88.4636,598.011 88.4636,593.178 93.5,588.5C 94.8943,580.543 95.3943,572.543 95,564.5C 94.187,569.774 93.687,569.774 93.5,564.5C 93.6667,563.167 93.8333,561.833 94,560.5C 94.6667,563.167 95.3333,563.167 96,560.5C 96.6289,557.689 97.1289,554.856 97.5,552C 97.3184,549.657 96.3184,547.824 94.5,546.5C 95.7662,545.276 96.9328,543.943 98,542.5C 98.3333,542.833 98.6667,543.167 99,543.5C 99.5058,534.082 100.339,524.749 101.5,515.5C 102.816,518.087 103.483,521.087 103.5,524.5C 101.21,549.45 98.8765,574.45 96.5,599.5C 156.833,599.5 217.167,599.5 277.5,599.5C 277.833,577.157 277.5,554.823 276.5,532.5C 275.608,528.263 274.108,524.263 272,520.5C 258.138,508.645 244.805,495.978 232,482.5C 227.182,473.864 223.182,464.864 220,455.5C 218.612,444.196 218.279,432.863 219,421.5C 220.271,414.96 222.104,408.627 224.5,402.5C 225.183,402.863 225.85,403.196 226.5,403.5 Z"/></g>
<g><path style="opacity:0.745" fill="#98a6b4" d="M 543.5,593.5 C 544.355,592.469 545.022,591.303 545.5,590C 545.164,588.97 544.497,588.47 543.5,588.5C 544.527,584.554 544.694,580.554 544,576.5C 543.667,578.833 543.333,581.167 543,583.5C 541.343,579.196 539.843,574.863 538.5,570.5C 528.972,569.897 519.638,570.564 510.5,572.5C 507.242,572.829 504.076,572.162 501,570.5C 485.848,570.45 470.681,570.783 455.5,571.5C 454.372,572.262 453.205,572.929 452,573.5C 450.126,577.52 450.126,581.52 452,585.5C 452.414,585.043 452.914,584.709 453.5,584.5C 455.033,586.289 456.033,588.289 456.5,590.5C 455.448,590.351 454.448,590.517 453.5,591C 457.905,593.578 459.572,597.411 458.5,602.5C 457.5,602.5 456.5,602.5 455.5,602.5C 421.5,602.5 387.5,602.5 353.5,602.5C 353.5,601.5 353.5,600.5 353.5,599.5C 387.167,599.5 420.833,599.5 454.5,599.5C 454.762,598.022 454.429,596.689 453.5,595.5C 448.972,592.397 447.305,588.23 448.5,583C 447.833,582 447.167,581 446.5,580C 447.185,577.205 447.685,574.372 448,571.5C 448.5,569.667 449.667,568.5 451.5,568C 481.167,567.333 510.833,567.333 540.5,568C 542.305,568.972 543.972,570.139 545.5,571.5C 549.323,578.381 549.489,585.381 546,592.5C 545.329,593.252 544.496,593.586 543.5,593.5 Z M 541.5,574.5 C 542.363,575.463 543.03,575.463 543.5,574.5C 542.743,573.227 542.077,573.227 541.5,574.5 Z"/></g>
<g><path style="opacity:0.004" fill="#fefffe" d="M 526.5,589.5 C 527.525,589.897 527.692,590.563 527,591.5C 526.536,590.906 526.369,590.239 526.5,589.5 Z"/></g>
<g><path style="opacity:0.004" fill="#fefffe" d="M 537.5,586.5 C 538.833,587.167 538.833,587.167 537.5,586.5 Z"/></g>
<g><path style="opacity:0.004" fill="#fefffe" d="M 453.5,581.5 C 454.833,582.167 454.833,582.167 453.5,581.5 Z"/></g>
<g><path style="opacity:0.004" fill="#fefffe" d="M 455.5,579.5 C 456.675,579.281 457.675,579.614 458.5,580.5C 456.948,581.798 455.948,581.465 455.5,579.5 Z"/></g>
<g><path style="opacity:0.004" fill="#fefffe" d="M 453.5,581.5 C 452.711,581.217 452.044,580.717 451.5,580C 452.816,579.472 453.483,579.972 453.5,581.5 Z"/></g>
<g><path style="opacity:0.004" fill="#fefffe" d="M 453.5,577.5 C 454.833,578.167 454.833,578.167 453.5,577.5 Z"/></g>
<g><path style="opacity:0.004" fill="#fefffe" d="M 90.5,604.5 C 91.0768,603.227 91.7435,603.227 92.5,604.5C 92.0302,605.463 91.3635,605.463 90.5,604.5 Z"/></g>
<g><path style="opacity:0.004" fill="#fefffe" d="M 526.5,603.5 C 527.833,604.167 527.833,604.167 526.5,603.5 Z"/></g>
<g><path style="opacity:0.004" fill="#fefffe" d="M 659.5,603.5 C 660.833,604.167 660.833,604.167 659.5,603.5 Z"/></g>
<g><path style="opacity:0.004" fill="#fefffe" d="M 114.5,605.5 C 115.251,604.427 116.251,604.26 117.5,605C 116.552,605.483 115.552,605.649 114.5,605.5 Z"/></g>
<g><path style="opacity:0.004" fill="#fefffe" d="M 271.5,604.5 C 272.833,605.167 272.833,605.167 271.5,604.5 Z"/></g>
<g><path style="opacity:0.004" fill="#fefffe" d="M 358.5,605.5 C 361.495,603.983 362.661,604.983 362,608.5C 361.578,606.574 360.411,605.574 358.5,605.5 Z"/></g>
<g><path style="opacity:0.004" fill="#fefffe" d="M 454.5,604.5 C 455.833,605.167 455.833,605.167 454.5,604.5 Z"/></g>
<g><path style="opacity:0.004" fill="#fefffe" d="M 533.5,604.5 C 534.833,604.5 536.167,604.5 537.5,604.5C 537.5,605.5 537.5,606.5 537.5,607.5C 535.027,607.912 533.694,606.912 533.5,604.5 Z"/></g>
<g><path style="opacity:0.004" fill="#fefffe" d="M 550.5,604.5 C 551.833,605.167 551.833,605.167 550.5,604.5 Z"/></g>
<g><path style="opacity:0.004" fill="#fefffe" d="M 649.5,606.5 C 650.376,606.369 651.043,606.702 651.5,607.5C 649.192,608.873 648.525,608.54 649.5,606.5 Z"/></g>
<g><path style="opacity:0.004" fill="#fefffe" d="M 903.5,606.5 C 904.833,607.167 904.833,607.167 903.5,606.5 Z"/></g>
<g><path style="opacity:0.004" fill="#fefffe" d="M 92.5,607.5 C 93.8333,608.167 93.8333,608.167 92.5,607.5 Z"/></g>
<g><path style="opacity:0.004" fill="#fefffe" d="M 97.5,608.5 C 98.8333,609.167 98.8333,609.167 97.5,608.5 Z"/></g>
<g><path style="opacity:0.004" fill="#fefffe" d="M 101.5,608.5 C 102.833,609.167 102.833,609.167 101.5,608.5 Z"/></g>
<g><path style="opacity:0.004" fill="#fefffe" d="M 274.5,608.5 C 277.275,608.834 277.941,610.167 276.5,612.5C 274.889,611.68 274.222,610.346 274.5,608.5 Z"/></g>
<g><path style="opacity:0.004" fill="#fefffe" d="M 357.5,608.5 C 360.001,608.511 360.168,609.178 358,610.5C 357.536,609.906 357.369,609.239 357.5,608.5 Z"/></g>
<g><path style="opacity:0.004" fill="#fefffe" d="M 532.5,608.5 C 533.833,609.167 533.833,609.167 532.5,608.5 Z"/></g>
<g><path style="opacity:0.004" fill="#fefffe" d="M 655.5,608.5 C 656.833,609.167 656.833,609.167 655.5,608.5 Z"/></g>
<g><path style="opacity:0.004" fill="#fefffe" d="M 903.5,608.5 C 904.525,608.897 904.692,609.563 904,610.5C 903.536,609.906 903.369,609.239 903.5,608.5 Z"/></g>
<g><path style="opacity:0.004" fill="#fefffe" d="M 659.5,609.5 C 661.465,609.948 661.798,610.948 660.5,612.5C 658.481,611.867 658.147,610.867 659.5,609.5 Z"/></g>
<g><path style="opacity:0.969" fill="#bdc8d2" d="M 892.5,622.5 C 891.069,622.881 890.236,623.881 890,625.5C 889.667,654.5 889.333,683.5 889,712.5C 888.617,713.056 888.117,713.389 887.5,713.5C 888.485,683.21 888.818,652.877 888.5,622.5C 628.5,622.5 368.5,622.5 108.5,622.5C 108.198,652.858 108.531,683.192 109.5,713.5C 108.778,713.082 108.278,712.416 108,711.5C 107.5,681.502 107.333,651.502 107.5,621.5C 114.197,621.452 120.864,620.952 127.5,620C 121.843,619.501 116.176,619.334 110.5,619.5C 366.164,617.501 622.164,616.834 878.5,617.5C 878.5,616.5 878.5,615.5 878.5,614.5C 881.181,614.538 883.681,613.871 886,612.5C 887.5,613 889,613.5 890.5,614C 891.482,616.738 892.148,619.572 892.5,622.5 Z"/></g>
<g><path style="opacity:0.004" fill="#000000" d="M 102.5,639.5 C 103.833,640.167 103.833,640.167 102.5,639.5 Z"/></g>
<g><path style="opacity:0.004" fill="#000000" d="M 102.5,645.5 C 103.833,646.167 103.833,646.167 102.5,645.5 Z"/></g>
<g><path style="opacity:0.004" fill="#000000" d="M 102.5,668.5 C 103.525,668.897 103.692,669.563 103,670.5C 102.536,669.906 102.369,669.239 102.5,668.5 Z"/></g>
<g><path style="opacity:0.004" fill="#000000" d="M 102.5,673.5 C 103.525,673.897 103.692,674.563 103,675.5C 102.536,674.906 102.369,674.239 102.5,673.5 Z"/></g>
<g><path style="opacity:0.005" fill="#f2fffe" d="M 887.5,735.5 C 887.5,735.167 887.5,734.833 887.5,734.5C 887.5,733.833 887.5,733.167 887.5,732.5C 889.584,730.725 890.751,728.392 891,725.5C 892.392,728.278 892.892,731.278 892.5,734.5C 890.784,734.629 889.117,734.962 887.5,735.5 Z"/></g>
<g><path style="opacity:0.004" fill="#fefffe" d="M 105.5,727.5 C 104.833,726.167 104.833,726.167 105.5,727.5 Z"/></g>
<g><path style="opacity:0.004" fill="#fefffe" d="M 105.5,727.5 C 106.525,727.897 106.692,728.563 106,729.5C 105.536,728.906 105.369,728.239 105.5,727.5 Z"/></g>
<g><path style="opacity:0.004" fill="#fefffe" d="M 104.5,733.5 C 106.465,733.948 106.798,734.948 105.5,736.5C 104.614,735.675 104.281,734.675 104.5,733.5 Z"/></g>
<g><path style="opacity:0.004" fill="#fefffe" d="M 107.5,740.5 C 108.077,739.227 108.743,739.227 109.5,740.5C 109.03,741.463 108.363,741.463 107.5,740.5 Z"/></g>
<g><path style="opacity:0.004" fill="#fefffe" d="M 886.5,744.5 C 889.462,744.117 890.462,745.117 889.5,747.5C 887.787,747.121 886.787,746.121 886.5,744.5 Z"/></g>
<g><path style="opacity:0.004" fill="#fefffe" d="M 882.5,745.5 C 882.833,745.5 883.167,745.5 883.5,745.5C 883.315,746.17 882.981,746.17 882.5,745.5 Z"/></g>
<g><path style="opacity:0.004" fill="#fefffe" d="M 111.5,746.5 C 112.833,747.167 112.833,747.167 111.5,746.5 Z"/></g>
<g><path style="opacity:0.004" fill="#fefffe" d="M 119.5,758.5 C 120.833,759.167 120.833,759.167 119.5,758.5 Z"/></g>
<g><path style="opacity:0.004" fill="#fefffe" d="M 863.5,772.5 C 864.833,773.167 864.833,773.167 863.5,772.5 Z"/></g>
<g><path style="opacity:0.004" fill="#b8b8b8" d="M 145.5,786.5 C 148.001,786.511 148.168,787.178 146,788.5C 145.536,787.906 145.369,787.239 145.5,786.5 Z"/></g>
<g><path style="opacity:0.004" fill="#fefffe" d="M 156.5,792.5 C 155.833,793.167 155.833,793.167 156.5,792.5 Z"/></g>
<g><path style="opacity:0.005" fill="#fefffe" d="M 835.5,793.5 C 837.973,793.947 838.14,794.947 836,796.5C 835.517,795.552 835.351,794.552 835.5,793.5 Z"/></g>
<g><path style="opacity:0.005" fill="#fefffe" d="M 165.5,796.5 C 165.657,797.873 165.49,799.207 165,800.5C 158.973,798.363 159.139,797.029 165.5,796.5 Z"/></g>
<g><path style="opacity:0.004" fill="#fefffe" d="M 169.5,799.5 C 170.833,800.167 170.833,800.167 169.5,799.5 Z"/></g>
<g><path style="opacity:0.004" fill="#fefffe" d="M 832.5,799.5 C 834.355,799.272 835.188,799.939 835,801.5C 832.366,802.692 831.532,802.026 832.5,799.5 Z"/></g>
<g><path style="opacity:0.762" fill="#8899ac" d="M 110.5,619.5 C 116.176,619.334 121.843,619.501 127.5,620C 120.864,620.952 114.197,621.452 107.5,621.5C 107.333,651.502 107.5,681.502 108,711.5C 108.278,712.416 108.778,713.082 109.5,713.5C 109.336,716.187 109.503,718.854 110,721.5C 117.476,753.294 135.642,776.794 164.5,792C 171.49,794.792 178.49,797.459 185.5,800C 187.473,800.495 189.473,800.662 191.5,800.5C 191.611,801.117 191.944,801.617 192.5,802C 394.833,802.667 597.167,802.667 799.5,802C 802.31,801.218 804.977,800.384 807.5,799.5C 813.409,798.773 819.076,797.273 824.5,795C 830.648,790.957 836.981,787.29 843.5,784C 856.077,774.165 867.077,762.831 876.5,750C 877.181,745.277 879.014,741.111 882,737.5C 882.977,731.572 884.643,725.906 887,720.5C 887.497,718.19 887.663,715.857 887.5,713.5C 888.117,713.389 888.617,713.056 889,712.5C 889.333,683.5 889.667,654.5 890,625.5C 890.236,623.881 891.069,622.881 892.5,622.5C 892.439,655.23 892.439,687.897 892.5,720.5C 891.758,721.287 890.925,721.953 890,722.5C 889.339,725.946 888.505,729.279 887.5,732.5C 887.5,733.167 887.5,733.833 887.5,734.5C 884.833,734.833 884.833,735.167 887.5,735.5C 888.895,736.648 888.728,737.648 887,738.5C 886.667,737.833 886.333,737.167 886,736.5C 884.369,738.955 884.203,741.455 885.5,744C 884.956,744.717 884.289,745.217 883.5,745.5C 883.167,741.5 882.833,741.5 882.5,745.5C 881.007,748.459 879.007,751.126 876.5,753.5C 875.695,755.915 874.695,758.249 873.5,760.5C 870.144,764.519 866.81,768.519 863.5,772.5C 858.584,776.235 853.751,780.235 849,784.5C 848.383,785.449 848.549,786.282 849.5,787C 848.216,787.684 847.049,787.517 846,786.5C 842.692,789.229 839.192,791.562 835.5,793.5C 834.624,793.369 833.957,793.702 833.5,794.5C 834.44,797.052 833.44,797.886 830.5,797C 831.696,796.346 831.696,795.846 830.5,795.5C 827.83,797.422 824.83,798.588 821.5,799C 822.5,799.333 823.5,799.667 824.5,800C 822.694,800.81 821.194,801.976 820,803.5C 818.739,803.241 817.739,802.574 817,801.5C 812.285,802.779 807.452,803.612 802.5,804C 802.833,804.333 803.167,804.667 803.5,805C 799.812,805.19 796.312,806.024 793,807.5C 594.569,806.667 396.069,806.167 197.5,806C 186.975,804.451 176.308,801.284 165.5,796.5C 164.077,795.551 162.577,794.551 161,793.5C 160.5,793.667 160,793.833 159.5,794C 160.451,794.718 160.617,795.551 160,796.5C 159.26,794.681 158.093,793.348 156.5,792.5C 151.876,788.888 147.21,785.221 142.5,781.5C 141.063,784.044 139.563,784.044 138,781.5C 137.383,780.551 137.549,779.718 138.5,779C 137.013,776.515 135.179,774.348 133,772.5C 131.16,773.833 130.66,773.666 131.5,772C 130.78,769.878 129.613,769.378 128,770.5C 124.871,768.92 124.037,766.586 125.5,763.5C 123.266,761.619 121.933,759.285 121.5,756.5C 119.712,756.785 118.045,756.452 116.5,755.5C 117.167,754.833 117.833,754.167 118.5,753.5C 113.879,746.48 110.712,738.813 109,730.5C 108.465,732.271 107.631,732.604 106.5,731.5C 107.975,728.353 107.808,725.353 106,722.5C 105.667,723.167 105.333,723.833 105,724.5C 102.861,721.728 103.027,719.062 105.5,716.5C 104.838,691.637 104.171,666.804 103.5,642C 104.151,634.557 104.818,627.057 105.5,619.5C 107.003,618.948 108.669,618.948 110.5,619.5 Z"/></g>
<g><path style="opacity:0.9" fill="#cbd2d8" d="M 807.5,799.5 C 804.977,800.384 802.31,801.218 799.5,802C 597.167,802.667 394.833,802.667 192.5,802C 191.944,801.617 191.611,801.117 191.5,800.5C 393.812,801.662 596.146,801.829 798.5,801C 801.351,799.711 804.351,799.211 807.5,799.5 Z"/></g>
<g><path style="opacity:0.992" fill="#f6fcfe" d="M 887.5,713.5 C 887.663,715.857 887.497,718.19 887,720.5C 884.643,725.906 882.977,731.572 882,737.5C 879.014,741.111 877.181,745.277 876.5,750C 867.077,762.831 856.077,774.165 843.5,784C 836.981,787.29 830.648,790.957 824.5,795C 819.076,797.273 813.409,798.773 807.5,799.5C 804.351,799.211 801.351,799.711 798.5,801C 596.146,801.829 393.812,801.662 191.5,800.5C 189.473,800.662 187.473,800.495 185.5,800C 178.49,797.459 171.49,794.792 164.5,792C 135.642,776.794 117.476,753.294 110,721.5C 109.503,718.854 109.336,716.187 109.5,713.5C 108.531,683.192 108.198,652.858 108.5,622.5C 368.5,622.5 628.5,622.5 888.5,622.5C 888.818,652.877 888.485,683.21 887.5,713.5 Z"/></g>
<g><path style="opacity:0.004" fill="#fefffe" d="M 195.5,809.5 C 196.833,810.167 196.833,810.167 195.5,809.5 Z"/></g>
<g><path style="opacity:0.004" fill="#fefffe" d="M 186.5,810.5 C 187.833,811.167 187.833,811.167 186.5,810.5 Z"/></g>
<g><path style="opacity:0.004" fill="#fefffe" d="M 526.5,810.5 C 527.833,811.167 527.833,811.167 526.5,810.5 Z"/></g>
<g><path style="opacity:0.008" fill="#ebebec" d="M 99.5,938.5 C 111.525,938.827 123.525,938.827 135.5,938.5C 135.979,942.911 135.312,947.078 133.5,951C 122.5,951.667 111.5,951.667 100.5,951C 99.4272,949.687 98.7605,948.187 98.5,946.5C 98.5439,943.883 98.8773,941.216 99.5,938.5 Z"/></g>
<g><path style="opacity:0.006" fill="#edefef" d="M 166.5,938.5 C 176.512,939.125 186.512,939.459 196.5,939.5C 196.605,943.548 196.272,947.548 195.5,951.5C 184.162,951.667 172.828,951.5 161.5,951C 159.954,947.35 159.287,943.516 159.5,939.5C 162.059,939.802 164.393,939.468 166.5,938.5 Z"/></g>
<g><path style="opacity:0.004" fill="#a7a7a7" d="M 45.5,943.5 C 47.6477,943.389 47.981,944.056 46.5,945.5C 45.277,946.614 43.9437,946.781 42.5,946C 43.9423,945.623 44.9423,944.79 45.5,943.5 Z"/></g>
<g><path style="opacity:0.006" fill="#f5f6f8" d="M 659.5,946.5 C 669.257,948.046 679.09,949.046 689,949.5C 697.608,949.321 706.108,948.321 714.5,946.5C 723.528,946.579 732.528,947.079 741.5,948C 744.534,959.253 748.534,970.419 753.5,981.5C 752.313,983.812 750.98,983.646 749.5,981C 746.462,980.664 743.628,979.831 741,978.5C 737.64,979.845 734.807,982.012 732.5,985C 730.925,984.621 729.425,984.788 728,985.5C 726.488,984.743 725.154,983.743 724,982.5C 723.586,982.957 723.086,983.291 722.5,983.5C 712.616,979.483 702.45,976.15 692,973.5C 689.943,975.269 688.11,977.269 686.5,979.5C 678.833,980.167 671.167,980.833 663.5,981.5C 662.349,983.773 661.349,986.106 660.5,988.5C 657.38,985.623 654.213,985.289 651,987.5C 647.504,987.089 644.837,985.422 643,982.5C 639.882,986.939 636.715,987.272 633.5,983.5C 631.034,982.877 628.701,982.043 626.5,981C 630.646,971.112 633.979,960.945 636.5,950.5C 644.185,948.455 651.852,947.122 659.5,946.5 Z"/></g>
<g><path style="opacity:0.008" fill="#f4f5f7" d="M 831.5,957.5 C 830.85,957.196 830.183,956.863 829.5,956.5C 829.167,959.333 828.833,962.167 828.5,965C 829.23,974.821 829.563,984.654 829.5,994.5C 828.542,994.047 827.708,993.381 827,992.5C 823.833,992.667 820.667,992.833 817.5,993C 815.714,992.215 814.214,991.049 813,989.5C 812.261,990.574 811.261,991.241 810,991.5C 808.291,990.43 806.791,989.097 805.5,987.5C 804.086,988.624 802.586,989.624 801,990.5C 799.974,987.307 797.808,985.974 794.5,986.5C 793.927,973.48 793.927,960.48 794.5,947.5C 806.364,947.198 818.198,946.864 830,946.5C 831.415,949.958 831.915,953.625 831.5,957.5 Z"/></g>
<g><path style="opacity:0.004" fill="#eff0f3" d="M 9.5,946.5 C 12.8988,947.016 16.2321,947.85 19.5,949C 12.7549,956.578 13.5882,963.411 22,969.5C 28.4732,970.812 34.9732,971.979 41.5,973C 42.1667,973.667 42.8333,974.333 43.5,975C 51.5957,976.691 59.5957,978.691 67.5,981C 81.83,981.878 96.1633,982.711 110.5,983.5C 108.807,984.228 107.307,985.228 106,986.5C 103.618,985.134 101.452,985.467 99.5,987.5C 97.3932,986.363 95.2265,985.363 93,984.5C 91.3745,985.289 89.8745,986.289 88.5,987.5C 86.7049,986.735 84.8716,986.068 83,985.5C 80.8449,986.244 78.8449,987.244 77,988.5C 74.8044,987.91 72.6378,987.243 70.5,986.5C 68.6841,987.815 67.0175,989.315 65.5,991C 61.5305,990.674 57.5305,990.674 53.5,991C 51.981,992.351 50.6477,993.851 49.5,995.5C 42.7837,996.281 36.117,997.281 29.5,998.5C 26.0187,996.554 23.1854,993.887 21,990.5C 17.221,985.277 14.221,979.61 12,973.5C 10.9908,964.502 10.1575,955.502 9.5,946.5 Z"/></g>
<g><path style="opacity:0.017" fill="#f7fbfc" d="M 922.5,947.5 C 922.331,958.347 921.998,969.347 921.5,980.5C 922.552,980.649 923.552,980.483 924.5,980C 921.969,978.269 921.969,977.769 924.5,978.5C 927.5,978.5 930.5,978.5 933.5,978.5C 934.492,980.026 935.992,980.693 938,980.5C 954.084,979.75 970.251,979.75 986.5,980.5C 986.5,989.5 986.5,998.5 986.5,1007.5C 954.315,1007.08 922.315,1007.75 890.5,1009.5C 888.879,1009.21 887.879,1008.21 887.5,1006.5C 887.939,995.552 887.939,984.552 887.5,973.5C 888.5,973.5 889.5,973.5 890.5,973.5C 890.344,964.825 890.011,956.158 889.5,947.5C 900.672,946.946 911.672,946.946 922.5,947.5 Z"/></g>
<g><path style="opacity:0.027" fill="#848b9d" d="M 889.5,947.5 C 890.011,956.158 890.344,964.825 890.5,973.5C 889.5,973.5 888.5,973.5 887.5,973.5C 886.478,965.165 886.311,956.498 887,947.5C 887.77,946.402 888.603,946.402 889.5,947.5 Z"/></g>
<g><path style="opacity:0.008" fill="#8e99a4" d="M 924.5,978.5 C 921.969,977.769 921.969,978.269 924.5,980C 923.552,980.483 922.552,980.649 921.5,980.5C 921.998,969.347 922.331,958.347 922.5,947.5C 941.841,946.331 961.174,946.331 980.5,947.5C 980.67,948.822 980.337,949.989 979.5,951C 961.26,951.825 943.093,951.659 925,950.5C 924.5,959.827 924.334,969.161 924.5,978.5 Z"/></g>
<g><path style="opacity:0.004" fill="#fbf9fd" d="M 288.5,951.5 C 300.125,952.635 311.792,953.301 323.5,953.5C 323.666,957.846 323.499,962.179 323,966.5C 320.667,968.833 318.333,971.167 316,973.5C 308.588,969.965 300.921,966.965 293,964.5C 291.351,965.898 290.018,965.564 289,963.5C 288.501,959.514 288.334,955.514 288.5,951.5 Z"/></g>
<g><path style="opacity:0.004" fill="#f8fdfd" d="M 418.5,954.5 C 417.64,958.434 417.307,962.434 417.5,966.5C 416.312,965.316 415.145,965.316 414,966.5C 409.833,972.167 405.667,977.833 401.5,983.5C 400.029,981.187 398.196,980.853 396,982.5C 393.632,978.859 390.799,978.192 387.5,980.5C 384.491,979.154 382.824,976.821 382.5,973.5C 383.419,967.206 383.753,960.873 383.5,954.5C 395.44,954.355 407.107,954.355 418.5,954.5 Z"/></g>
<g><path style="opacity:0.004" fill="#f6f6f6" d="M 476.5,953.5 C 477.276,961.475 477.61,969.475 477.5,977.5C 473.403,976.548 469.403,975.381 465.5,974C 464.953,973.075 464.287,972.242 463.5,971.5C 460.14,974.194 457.14,977.194 454.5,980.5C 451.746,978.394 448.746,976.728 445.5,975.5C 445.167,972 444.833,968.5 444.5,965C 444.366,960.986 444.866,957.153 446,953.5C 456.11,953.777 466.276,953.777 476.5,953.5 Z"/></g>
<g><path style="opacity:0.004" fill="#625686" d="M 476.5,953.5 C 478.252,953.418 479.252,954.251 479.5,956C 478.911,963.882 478.244,971.049 477.5,977.5C 477.61,969.475 477.276,961.475 476.5,953.5 Z"/></g>
<g><path style="opacity:0.005" fill="#f7f7f8" d="M 491.5,953.5 C 509.171,954.634 526.838,954.634 544.5,953.5C 548.238,953.796 551.905,954.462 555.5,955.5C 551.244,963.535 547.744,971.868 545,980.5C 543.5,982.667 542,984.833 540.5,987C 539.216,987.684 538.049,987.517 537,986.5C 536,987.167 535,987.833 534,988.5C 531.183,985.835 528.017,985.168 524.5,986.5C 522.228,985.559 520.228,984.226 518.5,982.5C 516.473,984.339 514.14,984.839 511.5,984C 509.983,982.315 508.316,980.815 506.5,979.5C 505.086,980.624 503.586,981.624 502,982.5C 497.787,973.023 494.287,963.357 491.5,953.5 Z"/></g>
<g><path style="opacity:0.005" fill="#f6f6f7" d="M 574.5,953.5 C 583.857,954.269 593.19,954.603 602.5,954.5C 601.917,961.821 601.417,969.154 601,976.5C 600.667,976.167 600.333,975.833 600,975.5C 597.654,979.179 594.654,982.179 591,984.5C 584.077,981.403 576.91,978.736 569.5,976.5C 568.728,969.159 568.062,961.826 567.5,954.5C 570.059,954.802 572.393,954.468 574.5,953.5 Z"/></g>
<g><path style="opacity:0.004" fill="#000000" d="M 418.5,954.5 C 419.097,954.735 419.43,955.235 419.5,956C 418.938,959.654 418.271,963.154 417.5,966.5C 417.307,962.434 417.64,958.434 418.5,954.5 Z"/></g>
<g><path style="opacity:0.008" fill="#636363" d="M 831.5,957.5 C 831.378,970.48 830.712,982.813 829.5,994.5C 829.563,984.654 829.23,974.821 828.5,965C 828.833,962.167 829.167,959.333 829.5,956.5C 830.183,956.863 830.85,957.196 831.5,957.5 Z"/></g>
<g><path style="opacity:0.012" fill="#6e777c" d="M 890.5,1009.5 C 922.315,1007.75 954.315,1007.08 986.5,1007.5C 986.5,998.5 986.5,989.5 986.5,980.5C 970.251,979.75 954.084,979.75 938,980.5C 935.992,980.693 934.492,980.026 933.5,978.5C 951.535,977.387 969.535,977.387 987.5,978.5C 988.192,979.025 988.692,979.692 989,980.5C 989.807,990.214 989.641,999.881 988.5,1009.5C 955.836,1010.52 923.169,1010.52 890.5,1009.5 Z"/></g>
</svg>
