<?xml version="1.0" standalone="no"?>
<!DOCTYPE svg PUBLIC "-//W3C//DTD SVG 20010904//EN"
 "http://www.w3.org/TR/2001/REC-SVG-20010904/DTD/svg10.dtd">
<svg version="1.0" xmlns="http://www.w3.org/2000/svg"
 width="1920.000000pt" height="1920.000000pt" viewBox="0 0 1920.000000 1920.000000"
 preserveAspectRatio="xMidYMid meet">

<g transform="translate(0.000000,1920.000000) scale(0.100000,-0.100000)"
fill="#000000" stroke="none">
<path d="M9240 15654 c-1108 -79 -2078 -400 -2965 -982 -364 -238 -630 -455
-953 -775 -870 -863 -1447 -1944 -1681 -3147 -145 -751 -145 -1549 0 -2300
206 -1060 677 -2022 1390 -2840 137 -157 419 -440 564 -567 883 -770 1957
-1270 3090 -1437 356 -52 482 -61 910 -61 429 1 569 10 905 61 1321 201 2505
811 3442 1773 631 648 1103 1417 1393 2272 426 1255 426 2643 0 3898 -430
1268 -1277 2366 -2395 3106 -714 473 -1511 786 -2350 925 -342 56 -528 71
-930 75 -201 1 -390 1 -420 -1z m550 -1514 c673 -32 1278 -191 1865 -490 1172
-596 2035 -1680 2349 -2951 450 -1820 -252 -3716 -1779 -4804 -767 -547 -1670
-835 -2620 -837 -594 -1 -1135 100 -1678 314 -1479 581 -2550 1903 -2816 3478
-46 267 -55 401 -55 750 0 349 9 483 55 750 78 462 221 896 429 1305 636 1250
1801 2131 3175 2404 252 50 466 73 840 89 17 1 122 -3 235 -8z"/>
<path d="M7294 12485 c-281 -61 -503 -273 -580 -556 -24 -87 -25 -280 -1 -369
20 -76 73 -190 118 -257 18 -27 403 -420 857 -875 l825 -827 -711 -718 c-391
-395 -761 -767 -822 -828 -212 -209 -282 -358 -283 -600 -1 -336 213 -624 537
-724 69 -21 102 -25 216 -25 115 -1 146 3 210 23 88 27 154 59 230 112 30 20
424 407 875 858 451 452 823 821 828 821 4 0 362 -356 795 -792 433 -435 820
-818 861 -850 85 -68 176 -116 281 -150 97 -30 298 -32 400 -4 209 57 381 196
479 386 97 187 112 380 46 589 -51 160 -31 138 -944 1053 l-846 848 841 842
c913 914 892 892 948 1059 136 407 -87 840 -499 969 -151 47 -358 36 -510 -27
-132 -55 -167 -88 -1015 -937 -454 -454 -829 -826 -835 -826 -5 0 -388 377
-850 838 -873 870 -875 872 -1015 929 -129 52 -303 67 -436 38z"/>
</g>
</svg>
